<?xml version="1.0" encoding="UTF-8"?>
<svg xmlns="http://www.w3.org/2000/svg" xmlns:xlink="http://www.w3.org/1999/xlink" viewBox="0 0 500 500">
  <defs>
    <style>
      .r {
        fill: url(#c);
      }

      .r, .s, .t, .u, .v, .w, .x, .y, .z, .aa, .ab, .ac, .ad, .ae, .af, .ag, .ah, .ai, .aj, .ak, .al, .am, .an, .ao, .ap {
        stroke-width: 0px;
      }

      .s {
        fill: #48ba49;
      }

      .t, .ak {
        fill: #000;
      }

      .u {
        fill: url(#e);
      }

      .v {
        fill: url(#g);
      }

      .w {
        fill: #98866e;
      }

      .x {
        fill: url(#i);
      }

      .aq {
        isolation: isolate;
      }

      .y {
        fill: url(#l);
      }

      .z {
        fill: url(#b);
      }

      .aa {
        fill: #f7f7f7;
      }

      .ab {
        fill: url(#q);
      }

      .ac {
        fill: #d6d6d6;
      }

      .ad {
        fill: url(#n);
      }

      .ae {
        fill: url(#h);
      }

      .af {
        fill: url(#j);
      }

      .ag {
        fill: #bcbcbc;
      }

      .ah {
        fill: url(#d);
      }

      .ai {
        fill: #004d40;
      }

      .aj {
        fill: url(#f);
      }

      .ak, .ar {
        mix-blend-mode: soft-light;
        opacity: .4;
      }

      .al {
        fill: url(#m);
      }

      .am {
        fill: #fff;
      }

      .an {
        fill: url(#k);
      }

      .ao {
        fill: url(#p);
      }

      .ap {
        fill: url(#o);
      }
    </style>
    <radialGradient id="b" cx="265.18" cy="220.02" fx="265.18" fy="220.02" r="239.78" gradientUnits="userSpaceOnUse">
      <stop offset="0" stop-color="#ae5a40"/>
      <stop offset=".17" stop-color="#894737"/>
      <stop offset=".54" stop-color="#2a0f00"/>
    </radialGradient>
    <linearGradient id="c" x1="-21.35" y1="225.92" x2="657.88" y2="530.62" gradientUnits="userSpaceOnUse">
      <stop offset=".16" stop-color="#ae5a40"/>
      <stop offset=".27" stop-color="#894737"/>
      <stop offset=".43" stop-color="#5f2f23"/>
    </linearGradient>
    <linearGradient id="d" x1="299.55" y1="333.31" x2="-140.05" y2="610.24" xlink:href="#c"/>
    <linearGradient id="e" x1="172.48" y1="414.92" x2="567.31" y2="164.59" xlink:href="#c"/>
    <linearGradient id="f" x1="161.16" y1="327.65" x2="630.71" y2="540.11" xlink:href="#c"/>
    <linearGradient id="g" x1="-35.95" y1="458.24" x2="384.8" y2="246.38" xlink:href="#c"/>
    <linearGradient id="h" x1="523.87" y1="442.57" x2="141.4" y2="226.74" xlink:href="#c"/>
    <linearGradient id="i" x1="39.53" y1="436.98" x2="53.42" y2="378.26" xlink:href="#c"/>
    <linearGradient id="j" x1="478.27" y1="430.17" x2="458.83" y2="381.56" xlink:href="#c"/>
    <linearGradient id="k" x1="350.03" y1="334.66" x2="428.79" y2="344.19" xlink:href="#c"/>
    <linearGradient id="l" x1="376.92" y1="348.34" x2="482.45" y2="370.56" xlink:href="#c"/>
    <linearGradient id="m" x1="398.04" y1="360.8" x2="444.66" y2="369.13" xlink:href="#c"/>
    <linearGradient id="n" x1="171.06" y1="338.57" x2="-10.38" y2="394.38" xlink:href="#c"/>
    <linearGradient id="o" x1="152.07" y1="354.95" x2="-265.31" y2="406.27" xlink:href="#c"/>
    <linearGradient id="p" x1="123.96" y1="345.88" x2="57.31" y2="387.67" xlink:href="#c"/>
    <radialGradient id="q" cx="259.46" cy="275.78" fx="259.46" fy="275.78" r="125.26" gradientUnits="userSpaceOnUse">
      <stop offset=".16" stop-color="#ae5a40"/>
      <stop offset=".27" stop-color="#894737"/>
      <stop offset=".43" stop-color="#2a0f00"/>
    </radialGradient>
  </defs>
  <g class="aq">
    <g id="a" data-name="Layer 1">
      <g>
        <g>
          <path class="z" d="M436.62,66.48s-21.46,1.05-40.31,9.42l-135.06,75.38L74.11,65.17l-13.35.26-28.53,164.11,221.55,123.61,222.1-138.01-39.26-148.67Z"/>
          <polygon class="r" points="32.23 229.54 35.11 251.27 238.22 362.77 253.78 353.16 32.23 229.54"/>
          <polygon class="ah" points="475.88 215.15 470.65 236.09 74.89 481.08 62.33 472.18 475.88 215.15"/>
          <polygon class="u" points="475.88 215.15 470.65 236.09 269.89 360.42 253.78 353.16 475.88 215.15"/>
          <polygon class="aj" points="254.06 370.17 450.76 475.32 464.37 465.9 270.04 360.27 254.06 370.17"/>
          <path class="v" d="M137.47,307.49l-114.93,66.8,10.47,24.6s16.21-6.83,25.14,6.1c1.97,2.86,3.16,6.18,3.66,9.61.99,6.81.71,19.22-12.57,25.12l13.09,32.46,175.89-109.41-100.75-55.28Z"/>
          <path class="ae" d="M370.39,298.15l-100.35,62.12,194.33,105.63,2.62-34.55s-6.61-2.4-12.86-7.61c-14.97-12.48-10.33-36.68,8.41-42.03,3.85-1.09,8.29-1.48,13.35-.62l1.57-25.65-107.06-57.29Z"/>
          <path class="x" d="M33.01,398.89l5.76,8.9s14.86-8.58,22.35,3.56c0,0-5.6-20.84-28.11-12.46Z"/>
          <path class="af" d="M475.88,381.09l-3.66,9.95s-13.07-10.72-25.12,4.32c0,0,5.91-18.02,28.78-14.27Z"/>
          <path class="ak" d="M35.63,401.51l1.86-2.66.23-.33.12-.17s.09-.14.19-.13c.09,0,.17.09.16.18l-.03.2-.07.4-.28,1.6-.56,3.2c-.03.24-.14.65-.06.55l.4-.64.85-1.39,1.71-2.77.85-1.38.11-.17.05-.09.03-.04s.04-.06.07-.08c.14-.1.32-.05.4.07.05.07.06.16.04.22l-.03.11-.24.77-1.94,6.2-.24.78-.12.39-.06.2c-.02.05,0-.01,0-.03,0-.03-.03-.04-.04-.05-.02,0-.04-.01-.06,0-.02,0-.05.04-.04.02l.11-.17.21-.35.43-.69,1.71-2.76,1.71-2.76.86-1.38.21-.35.11-.17.03-.04s.05-.07.09-.1c.08-.06.19-.09.28-.07.18.02.35.22.3.42-.03.13-.05.15-.07.22l-.13.38-2.04,6.17-.13.38-.06.19-.03.08s0-.07-.02-.1c-.04-.05-.1-.08-.18-.03-.02,0-.03.02-.03.03l.03-.04.06-.09.22-.34.89-1.36,1.77-2.72,1.78-2.72.06-.08.04-.05s.07-.07.11-.1c.2-.11.43-.04.53.14.06.09.05.22.03.29l-.03.1-.05.2-.2.79-.4,1.57-.81,3.15-.1.39-.02.1s0-.06-.02-.09c-.04-.05-.1-.07-.16-.03-.01,0-.02.02-.03.03l.03-.04.06-.08.11-.17.23-.34.91-1.35,1.82-2.69.46-.67.11-.17.06-.08.03-.04s.05-.06.08-.09c.16-.13.4-.08.51.07.06.08.08.19.06.28l-.02.11-.37,1.58-.74,3.17-.05.2-.02.1v.05s0-.02-.01-.03c-.01-.06-.05-.08-.1-.08-.02,0-.06.03-.05.03l.06-.08.49-.65.99-1.29.99-1.29.49-.65.12-.16s.02-.04.08-.1c.05-.06.15-.1.23-.09.16,0,.32.15.3.33-.02.12-.03.15-.04.22l-.67,3.18-.17.79-.02.1s0-.02,0-.02c0-.01-.03-.02-.05,0l.26-.27,1.12-1.18,1.12-1.18.14-.15s.03-.04.1-.09c.06-.04.14-.05.21-.03.14.02.23.2.19.32l-.05.2-.19.79-.39,1.58-.1.39-.05.2c-.02.07,0,.03,0,.06-.01.04.12-.09.22-.17l.31-.27,1.23-1.07.31-.26c.06-.05.09-.08.16-.14.1-.06.23-.02.28.07.03.04.03.11.02.15l-.03.1-.05.2-.1.39-.4,1.57-.05.2c-.02.07-.04.13-.02.16.02.04.08.06.12.03l.17-.1.7-.42.7-.42c.05-.03.12-.09.2-.07.08.02.13.11.1.19l-.13.38-.54,1.54.51-1.54.13-.39c.02-.05-.02-.12-.07-.13-.05-.02-.11.03-.17.07l-.69.43-.69.43-.17.11c-.08.05-.19.02-.24-.06-.02-.04-.03-.09-.02-.13l.02-.1.05-.2.37-1.58.09-.39.05-.2.02-.1s0-.03,0-.04c-.02-.03-.05-.04-.07-.02l-.14.13-.3.27-1.2,1.09-.3.27-.15.14-.04.03s-.05.03-.08.05c-.06.02-.13.02-.18-.01-.05-.03-.1-.07-.12-.14-.02-.06,0-.14,0-.16l.04-.2.09-.4.36-1.58.18-.79.05-.2s0,.01,0,0c.06-.05-.1.11-.17.2l-1.1,1.2-1.1,1.19c-.1.11-.16.18-.3.32-.13.1-.32.05-.4-.08-.04-.06-.06-.15-.04-.22l.02-.1.16-.79.64-3.19.03-.17s.03.06.05.06c.02,0,.04,0,.05-.02l-.05.06-.12.16-.49.65-.97,1.3-.97,1.3-.49.65-.06.08c-.03.05-.13.13-.22.14-.18.03-.37-.09-.4-.29,0-.04,0-.1,0-.13v-.05s.03-.1.03-.1l.04-.2.72-3.17.36-1.58.02-.09s0,.06.02.08c.03.04.09.05.15.01,0,0,.03-.03.01-.01l-.03.04-.06.09-.11.17-.45.67-1.81,2.7-.91,1.35-.23.34-.11.17-.06.08-.03.04s-.06.07-.1.1c-.18.12-.41.06-.52-.11-.06-.08-.07-.2-.05-.29l.03-.1.1-.39.8-3.15.4-1.58.2-.79.05-.2.03-.1s0,.06.01.09c.04.06.1.08.18.05.02,0,.03-.02.04-.03,0-.01-.01.02-.02.03l-.06.09-1.77,2.72-1.78,2.72-.89,1.36-.22.34-.06.08-.03.04s-.06.07-.1.11c-.19.12-.42.06-.53-.11-.06-.09-.07-.21-.05-.3l.04-.12.06-.19.13-.39,2.06-6.16.13-.38.05-.16c-.01.06.04.13.09.13.02,0,.07,0,.09-.03.01,0,.02-.03.02-.02l-.03.04-.11.17-.22.35-.86,1.38-1.72,2.75-1.73,2.75-.43.69-.22.34-.11.17s-.1.13-.19.15c-.09.03-.18.02-.26-.02-.08-.04-.14-.11-.17-.2-.03-.08,0-.22.01-.22l.06-.19.13-.39.25-.77,2.01-6.18.25-.77.03-.08s0,.02,0,.03c.01.01.02.02.05,0,0,0,0,0,0,0l-.03.04-.05.09-.11.17-.87,1.37-1.74,2.74-.88,1.37-.22.34-.11.17c-.05.05-.04.11-.17.2-.12.05-.26,0-.31-.11-.04-.14,0-.19,0-.26l.08-.4.62-3.19.31-1.6.08-.4.04-.2s-.03-.09-.08-.09c-.05,0-.08.03-.12.1l-.12.16-.24.33-1.91,2.63Z"/>
          <g class="ar">
            <path class="t" d="M470.68,390l1.75-2.12.88-1.06.22-.26.11-.13s.03-.07.02-.1c-.04-.08-.12-.04-.23.02l-.31.15-2.46,1.22-1.23.61-.15.08-.08.04s-.1.03-.15.02c-.11-.02-.18-.1-.2-.2-.03-.1.06-.23.1-.25l.51-.46,4.06-3.7.51-.46.25-.23.13-.12.06-.06s0,0,0,0c0,.02,0,.03,0,.03,0,.01.05,0,.02.01l-.3.16-.6.33-2.42,1.31-2.42,1.3-1.21.65-.6.33-.15.08-.07.04s-.12.05-.19.05c-.16,0-.29-.12-.34-.24-.06-.14,0-.33.12-.4l4.31-3.41,1.08-.85.54-.43.27-.21.14-.11s.03-.02,0,0c-.01.02-.02.05-.02.07,0,.04.02.07.07.08.02,0,.05,0,.07,0h.01s-.02,0-.02,0l-.04.02-.3.16-.61.33-1.21.65-4.85,2.59-2.43,1.29-.61.32-.09.05c-.07.03-.16.05-.24.03-.17-.03-.29-.16-.32-.33-.02-.08,0-.18.04-.25.02-.04.04-.07.07-.1l.03-.03.12-.12.96-.99,1.91-1.98.96-.99.48-.5.24-.25.12-.12s-.04.1-.01.12c.01.03.05.06.11.05.08-.03,0,.01-.05.05l-.28.2-.56.39-1.13.79-2.26,1.58-2.25,1.58-1.13.79-.56.39-.07.05-.04.03s-.06.03-.1.04c-.15.05-.31-.02-.39-.14-.1-.11-.07-.33-.01-.4l.08-.15,1.33-2.41.67-1.2.15-.27c-.01.06.03.09.09.06l-.43.48-3.65,4.12-.46.52-.06.06s-.09.08-.15.09c-.12.03-.24-.02-.31-.12-.03-.05-.05-.11-.05-.17,0-.07.01-.07.02-.11l.03-.17.27-1.35.24-1.19c.03-.1-.15.23-.25.4l-.34.6-1.36,2.39c-.12.2-.21.38-.36.61-.07.06-.17.07-.24.03-.08-.03-.12-.15-.11-.21v-.34s-.02-1.37-.02-1.37l.1.02-1.27,2.82h0c-.03.08-.12.12-.2.09-.09-.03-.1-.12-.12-.19l-.14-.42-.27-.84.29.83.15.41c.03.07.04.15.11.16.06.02.14-.01.16-.07h0l1.2-2.85.1-.22v.24s.06,1.37.06,1.37v.35c0,.09.08.1.12.07.09-.16.21-.39.32-.58l1.31-2.42.33-.6.16-.3c.04-.05.03-.09.12-.18.09-.07.22-.07.31-.02.1.05.15.19.12.28l-.03.17-.06.34-.13.68-.25,1.35c-.02.09-.05.29-.05.22,0,0,0,0,0,0,0,0,0,0,0,0l.05-.06.45-.52,3.59-4.16.22-.26.11-.13.06-.06s.03-.04.09-.09c.25-.18.61.08.51.38-.03.07-.04.08-.05.11l-.04.07-.08.15-.65,1.21-1.31,2.42-.08.15s.01-.06-.01-.07c-.01-.02-.05-.04-.09-.03,0,0-.02,0-.02,0l.03-.02.07-.05.56-.4,1.12-.79,2.25-1.58,2.25-1.58,1.12-.79.56-.4.28-.2.07-.05s.1-.07.18-.08c.17-.03.33.07.4.2.08.13.05.35-.05.44l-.12.13-.24.25-.48.5-.95.99-1.91,1.98-.95.99-.12.12-.03.03s.01-.01.02-.03c.01-.02.02-.05.01-.08-.01-.05-.03-.08-.1-.09-.03,0-.06,0-.07,0l.07-.03.6-.32,2.43-1.28,4.86-2.57,1.22-.64.61-.32.31-.16.04-.02h.02s.05-.03.05-.03c.07-.03.16-.03.23,0,.16.05.26.18.27.34,0,.08-.01.16-.06.23-.05.07-.11.11-.12.12l-.14.11-.27.21-.54.42-1.08.85-4.33,3.39s.04-.07.03-.1c0-.02-.03-.05-.08-.05-.01,0-.05.02-.03,0l.08-.04.15-.08.61-.32,1.22-.64,2.44-1.28,2.44-1.28.61-.32.31-.16c.06-.05.25-.07.34.01.1.07.15.2.12.33-.01.06-.06.12-.1.15l-.06.06-.13.12-.26.23-.52.46-4.12,3.65c-1.36,1.05.3.12.96-.17l2.49-1.17.31-.14c.06-.02.09-.05.17-.07.08-.01.16.04.2.11.04.07.02.17-.03.22l-.11.13-.22.26-.9,1.04-1.79,2.08Z"/>
          </g>
          <g>
            <path class="an" d="M368.37,348.34c-.58,1.03-1.49,1.57-2.43,1.66-1.37.14-2.79-.67-3.36-2.32-2.08-6.08-4.02-15.84,1.32-23.15.42-.57.94-.96,1.51-1.17,1.38-.52,3,.03,3.82,1.56,2.43,4.49,5.07,12.94-.86,23.41Z"/>
            <path class="ai" d="M367.52,337.38c0,5.06-.62,9.59-1.59,12.62-1.37.14-2.79-.67-3.36-2.32-2.08-6.08-4.02-15.84,1.32-23.15.42-.57.94-.96,1.51-1.17,1.27,2.91,2.11,8.1,2.11,14.01Z"/>
          </g>
          <g>
            <g>
              <path class="y" d="M395.59,363.52c-.58,1.03-1.49,1.57-2.43,1.66-1.37.14-2.79-.66-3.36-2.31-2.08-6.08-4.02-15.84,1.32-23.15.42-.57.94-.96,1.51-1.17,1.38-.51,3,.03,3.82,1.56,2.43,4.48,5.07,12.94-.86,23.41Z"/>
              <path class="ai" d="M394.74,352.57c0,5.06-.62,9.59-1.59,12.62-1.37.14-2.79-.66-3.36-2.31-2.08-6.08-4.02-15.84,1.32-23.15.42-.57.94-.96,1.51-1.17,1.27,2.91,2.11,8.1,2.11,14.02Z"/>
            </g>
            <g>
              <path class="al" d="M425.83,379.14c-.47,1.29-1.32,2.03-2.26,2.22-1.35.28-2.85-.57-3.58-2.51-2.7-7.18-5.63-18.83-1.07-28.13.36-.73.84-1.24,1.38-1.54,1.32-.74,2.99-.22,3.97,1.56,2.88,5.22,6.38,15.23,1.55,28.4Z"/>
              <path class="ai" d="M423.86,365.95c.52,6.12.37,11.66-.28,15.4-1.35.28-2.85-.57-3.58-2.51-2.7-7.18-5.63-18.83-1.07-28.13.36-.73.84-1.24,1.38-1.54,1.56,3.41,2.94,9.62,3.55,16.78Z"/>
            </g>
            <g>
              <path class="ai" d="M344.85,347.19c-1.25,2.92-8.41,2.66-15.98-.59-7.57-3.25-12.69-8.25-11.44-11.17,1.26-2.92,8.41-2.66,15.98.59,7.57,3.25,12.69,8.25,11.44,11.17Z"/>
              <path class="ai" d="M388.28,368.79c-.78,1.83-5.27,1.66-10.01-.37-4.75-2.03-7.96-5.17-7.17-7,.79-1.83,5.27-1.67,10.01.37,4.75,2.04,7.96,5.17,7.17,7Z"/>
              <path class="ai" d="M418.75,384.39c-.72,1.68-4.82,1.53-9.17-.34s-7.28-4.73-6.56-6.41c.72-1.68,4.82-1.53,9.17.34,4.34,1.86,7.28,4.73,6.56,6.41Z"/>
              <path class="ai" d="M440.18,394.25c-.6,1.39-4.01,1.27-7.62-.28-3.61-1.55-6.05-3.93-5.46-5.33.6-1.39,4.01-1.27,7.62.28,3.61,1.55,6.05,3.93,5.46,5.33Z"/>
              <path class="ai" d="M398.93,373.24c0,1.44-1.17,2.62-2.62,2.62s-2.62-1.17-2.62-2.62,1.17-2.62,2.62-2.62,2.62,1.17,2.62,2.62Z"/>
            </g>
            <path class="ai" d="M356.94,360.48c-1.92-2.25-8.2-.05-14.03,4.93-5.83,4.97-9,10.83-7.07,13.08,1.92,2.25,8.2.05,14.03-4.93,5.83-4.97,9-10.83,7.07-13.08Z"/>
            <path class="ai" d="M382.59,373.57c-1.92-2.25-8.21-.05-14.03,4.93-5.83,4.97-8.99,10.83-7.07,13.09,1.92,2.25,8.21.05,14.03-4.93,5.83-4.97,8.99-10.83,7.07-13.09Z"/>
            <path class="ai" d="M418.19,392.41c-1.92-2.25-8.21-.05-14.03,4.93-5.83,4.97-8.99,10.83-7.07,13.09s8.2.05,14.03-4.93c5.83-4.97,8.99-10.83,7.07-13.09Z"/>
          </g>
          <g>
            <g>
              <path class="ad" d="M135.77,361.88c.93.73,1.98.88,2.89.6,1.31-.4,2.32-1.68,2.21-3.42-.41-6.41-2.37-16.17-10.1-20.88-.61-.37-1.24-.52-1.84-.5-1.47.06-2.75,1.18-2.93,2.91-.52,5.08.28,13.89,9.77,21.29Z"/>
              <path class="ai" d="M132.36,351.44c1.94,4.67,4.25,8.62,6.3,11.05,1.31-.4,2.32-1.68,2.21-3.42-.41-6.41-2.37-16.17-10.1-20.88-.61-.37-1.24-.52-1.84-.5-.05,3.17,1.16,8.29,3.42,13.75Z"/>
            </g>
            <g>
              <path class="ap" d="M107.24,372.51c.9.76,1.95.95,2.86.71,1.33-.35,2.38-1.59,2.34-3.34-.17-6.42-1.75-16.25-9.3-21.25-.59-.39-1.22-.57-1.82-.57-1.47,0-2.8,1.07-3.04,2.79-.72,5.05-.25,13.89,8.95,21.65Z"/>
              <path class="ai" d="M104.23,361.94c1.76,4.75,3.92,8.78,5.88,11.28,1.33-.35,2.38-1.59,2.34-3.34-.17-6.42-1.75-16.25-9.3-21.25-.59-.39-1.22-.57-1.82-.57-.18,3.17.84,8.33,2.9,13.87Z"/>
            </g>
            <g>
              <path class="ao" d="M78.79,390.6c1.06.87,2.17,1.08,3.07.77,1.3-.44,2.17-1.93,1.82-3.98-1.3-7.56-4.66-19.09-13.29-24.81-.68-.44-1.35-.64-1.97-.63-1.52.03-2.69,1.32-2.63,3.36.15,5.96,2.19,16.37,13.01,25.29Z"/>
              <path class="ai" d="M73.83,378.22c2.65,5.55,5.57,10.25,8.03,13.15,1.3-.44,2.17-1.93,1.82-3.98-1.3-7.56-4.66-19.09-13.29-24.81-.68-.44-1.35-.64-1.97-.63.38,3.74,2.33,9.78,5.42,16.27Z"/>
            </g>
            <g>
              <path class="ai" d="M158.26,356.34c1.37,2.87,8.51,2.32,15.95-1.22,7.44-3.55,12.36-8.75,10.99-11.62-1.37-2.87-8.51-2.32-15.94,1.22-7.44,3.55-12.36,8.75-10.99,11.62Z"/>
              <path class="ai" d="M115.72,379.64c.86,1.8,5.33,1.45,9.99-.77,4.66-2.22,7.74-5.48,6.89-7.28-.86-1.8-5.33-1.45-9.99.77-4.66,2.22-7.74,5.48-6.89,7.28Z"/>
              <path class="ai" d="M85.88,396.44c.78,1.65,4.88,1.33,9.15-.7,4.27-2.03,7.09-5.02,6.3-6.67-.79-1.64-4.88-1.33-9.15.7-4.27,2.03-7.09,5.02-6.3,6.66Z"/>
              <path class="ai" d="M64.86,407.14c.65,1.37,4.06,1.11,7.6-.58,3.55-1.69,5.89-4.17,5.24-5.54-.65-1.37-4.06-1.11-7.6.58-3.55,1.69-5.89,4.17-5.24,5.54Z"/>
              <path class="ai" d="M105.25,384.51c.06,1.44,1.27,2.57,2.72,2.51,1.44-.06,2.57-1.28,2.51-2.72-.06-1.45-1.27-2.57-2.72-2.51-1.44.06-2.57,1.27-2.51,2.72Z"/>
            </g>
            <path class="ai" d="M144.09,369.57c1.83-2.33,8.2-.37,14.22,4.37,6.02,4.74,9.42,10.47,7.58,12.79-1.83,2.33-8.2.37-14.22-4.37-6.02-4.74-9.42-10.47-7.58-12.79Z"/>
            <path class="ai" d="M121.34,384.88c2.24-1.94,8.12,1.2,13.12,7,5,5.8,7.24,12.07,5,14-2.24,1.94-8.12-1.2-13.12-7-5-5.8-7.24-12.07-5-14Z"/>
            <path class="ai" d="M88.42,404.84c2.3-1.86,8.07,1.45,12.9,7.41,4.82,5.96,6.86,12.29,4.56,14.16-2.3,1.86-8.07-1.45-12.9-7.41-4.82-5.95-6.86-12.29-4.56-14.16Z"/>
          </g>
          <g>
            <path class="am" d="M463.84,217.24l-164.9,101.03c-22.51,14.13-46.88,13.62-66.45,10.18-15.65-2.74-30.66-8.36-44.41-16.31L39.3,226.14l31.41-161.76c1.83-1.01,3.63-1.93,5.41-2.76h0c17.59-8.32,32.28-8.75,32.28-8.75,10.47-2.09,18.32,4.19,18.32,4.19l-17.27,123.02c109.41,29.32,145.01,111.5,145.01,111.5,56.01-91.09,159.66-97.89,159.66-97.89l-27.22-119.36c6.8-2.09,15.18-1.57,15.18-1.57,11.11-1.71,18.5-.47,22.92,1.01.46.15.88.3,1.27.46,2.48.97,4.3,3.13,4.91,5.72l32.67,137.29Z"/>
            <path class="t" d="M254.33,330.74c-6.92,0-14.2-.68-21.88-2.02-15.47-2.71-30.44-8.21-44.5-16.34L39,226.28l.04-.18,31.43-161.88.11-.06c1.77-.98,3.55-1.89,5.29-2.71l.13-.07c17.44-8.25,32.24-8.77,32.38-8.77,10.42-2.09,18.41,4.18,18.49,4.25l.12.09-.02.15-17.24,122.79c24.9,6.69,48,16.71,68.66,29.76,16.58,10.48,31.65,22.92,44.77,37,20.52,22.01,29.86,41.22,31.32,44.38,12.75-20.63,29.03-38.58,48.38-53.38,15.59-11.91,33.19-21.81,52.32-29.42,30.68-12.2,55.58-14.54,58.6-14.78l-27.21-119.3.23-.07c6.57-2.02,14.7-1.62,15.25-1.58,11.32-1.73,18.76-.4,23.02,1.02.49.16.91.32,1.28.47,2.53,1,4.43,3.2,5.07,5.9l32.71,137.48-.16.1-164.9,101.03c-13.03,8.18-27.8,12.24-44.75,12.24ZM39.59,226.01l148.62,85.91c14.01,8.1,28.92,13.57,44.33,16.28,26.35,4.62,48.03,1.3,66.27-10.15l164.74-100.93-32.62-137.11c-.6-2.53-2.38-4.6-4.75-5.53-.37-.15-.78-.29-1.26-.46-4.21-1.41-11.57-2.72-22.8-1h-.03s-.03,0-.03,0c-.08,0-8.22-.48-14.86,1.49l27.24,119.42-.31.02c-.26.02-26.26,1.85-58.76,14.78-29.99,11.92-71.8,36-100.69,82.99l-.26.43-.2-.46c-.09-.2-9.15-20.8-31.44-44.7-20.57-22.06-56.94-51.53-113.39-66.65l-.22-.06,17.29-123.1c-1.01-.75-8.45-5.95-17.99-4.05-.19,0-14.8.53-32.07,8.66h0s-.15.08-.15.08c-1.74.81-3.52,1.72-5.29,2.7l-31.35,161.45Z"/>
          </g>
          <path class="ac" d="M108.4,52.87l-27.22,148.67s106.53,32,171.7,102.08c0,0,61.77-76.95,179.55-99.98l-30.36-130.87s-9.42-.52-15.18,1.57l-125.64,69.62L126.72,57.06s-8.38-6.28-18.32-4.19Z"/>
          <path class="t" d="M39.3,226.14c3.1-2.64,6.33-5.12,9.64-7.49,3.31-2.37,6.71-4.61,10.19-6.73,3.47-2.14,7.06-4.07,10.71-5.88,3.65-1.8,7.44-3.33,11.28-4.7l.06-.02.07.02c7.92,2.81,15.75,5.87,23.53,9.05,7.78,3.18,15.5,6.5,23.16,9.95,7.66,3.45,15.26,7.04,22.79,10.77,7.54,3.72,14.99,7.61,22.35,11.68,3.69,2.01,7.32,4.13,10.97,6.22,3.6,2.16,7.24,4.28,10.78,6.54,3.59,2.19,7.08,4.53,10.61,6.83,3.47,2.38,6.96,4.72,10.34,7.23l2.56,1.85c.86.61,1.68,1.27,2.51,1.9,1.66,1.29,3.35,2.54,5,3.85l4.89,3.99c.83.65,1.6,1.36,2.4,2.05l2.38,2.08c6.29,5.59,12.3,11.52,17.76,17.95h-.8c5.69-6.67,11.92-12.77,18.32-18.71,6.43-5.9,13.11-11.52,20-16.88,13.77-10.71,28.36-20.37,43.63-28.81,15.25-8.48,31.2-15.65,47.57-21.67l6.18-2.13,3.09-1.07,3.12-.97,6.24-1.94c2.09-.62,4.2-1.17,6.3-1.75,4.19-1.21,8.45-2.16,12.68-3.18,2.11-.54,4.26-.93,6.39-1.37l6.41-1.3h.01s.01,0,.01,0c2.96.08,5.89.47,8.78,1.05,2.89.58,5.73,1.4,8.47,2.49,2.74,1.09,5.37,2.45,7.78,4.15,2.42,1.68,4.57,3.74,6.37,6.06-1.82-2.31-3.99-4.34-6.42-6-2.42-1.68-5.05-3.01-7.79-4.08-2.74-1.06-5.58-1.85-8.46-2.41-2.88-.55-5.81-.92-8.74-.97h.03s-6.39,1.35-6.39,1.35c-2.13.46-4.27.87-6.37,1.43-4.22,1.05-8.47,2.03-12.64,3.28-2.09.6-4.19,1.16-6.28,1.79l-6.22,1.96-3.11.99-3.08,1.08-6.16,2.16c-16.31,6.07-32.19,13.31-47.36,21.84-15.21,8.45-29.75,18.11-43.46,28.81-6.86,5.35-13.51,10.97-19.91,16.86-6.36,5.92-12.58,12.05-18.19,18.64l-.41.48-.4-.47c-5.42-6.38-11.38-12.29-17.63-17.86l-2.36-2.07c-.79-.69-1.56-1.39-2.38-2.05l-4.87-3.98c-1.64-1.31-3.32-2.56-4.97-3.85-.84-.63-1.65-1.29-2.5-1.9l-2.55-1.85c-3.37-2.5-6.85-4.84-10.3-7.22-3.51-2.3-6.99-4.63-10.57-6.83-3.54-2.26-7.16-4.38-10.75-6.54-3.64-2.09-7.26-4.21-10.94-6.22-14.67-8.16-29.72-15.63-44.99-22.61-7.64-3.49-15.34-6.83-23.1-10.05-7.76-3.2-15.56-6.33-23.44-9.2h.13c-3.84,1.33-7.62,2.82-11.28,4.59-3.65,1.77-7.26,3.66-10.74,5.77-3.49,2.09-6.9,4.3-10.23,6.64-3.32,2.35-6.58,4.79-9.7,7.41Z"/>
          <path class="s" d="M463.72,216.73c.07.31-.06.63-.33.79l-164.45,100.76c-22.51,14.13-46.88,13.62-66.45,10.18-15.65-2.74-30.66-8.36-44.41-16.31L39.74,226.4c-.27-.16-.41-.46-.35-.77l31.25-160.91c.04-.21.18-.4.37-.5,1.28-.7,2.54-1.36,3.8-1.97.54-.26,1.14.21,1.02.8l-32.27,159.21c-.06.31.08.63.36.78l172.59,95.81c4.65,2.58,9.73,4.28,14.99,5.03,8.38,1.2,21.69,2.57,34.03,1.58,5.78-.46,11.37-2.33,16.33-5.34l175.25-106.26c.27-.16.4-.48.33-.79l-32.15-138.01c-.13-.56.42-1.04.96-.83h.01c2.48.98,4.3,3.14,4.91,5.72l32.54,136.78Z"/>
          <g>
            <polygon class="t" points="81.18 59.4 73.2 99.37 65.15 139.32 57.04 179.26 48.89 219.2 48.64 218.66 93.6 243.59 138.55 268.57 183.44 293.63 228.27 318.8 183.17 294.12 138.12 269.33 93.13 244.45 48.15 219.54 47.83 219.36 47.9 218.99 56.14 179.08 64.42 139.17 72.76 99.28 81.18 59.4"/>
            <polygon class="t" points="87.53 57.08 79.49 96.64 71.36 136.19 63.19 175.72 54.97 215.25 54.72 214.71 99.35 240.11 143.95 265.55 188.5 291.08 232.99 316.71 188.22 291.55 143.52 266.31 98.86 240.97 54.23 215.58 53.91 215.4 53.99 215.05 62.29 175.54 70.65 136.04 79.05 96.55 87.53 57.08"/>
            <polygon class="t" points="93.5 55.34 85.71 94.21 77.83 133.06 69.91 171.91 61.94 210.75 61.71 210.22 105.9 236.21 150.06 262.25 194.17 288.38 238.22 314.61 193.89 288.86 149.61 263.01 105.39 237.06 61.2 211.08 60.89 210.89 60.96 210.55 69.02 171.73 77.12 132.92 85.27 94.12 93.5 55.34"/>
            <polygon class="t" points="98.57 54.18 91.35 92.35 84.06 130.5 76.72 168.64 69.33 206.78 69.09 206.26 90.87 219.27 112.62 232.32 156.11 258.44 199.55 284.64 242.93 310.95 199.27 285.12 155.66 259.19 112.11 233.17 90.33 220.16 68.58 207.11 68.28 206.93 68.35 206.59 75.82 168.47 83.35 130.36 90.92 92.26 98.57 54.18"/>
            <polygon class="t" points="102.95 53.42 96.54 90.88 90.06 128.33 83.53 165.77 76.95 203.2 76.73 202.69 97.97 215.91 119.19 229.17 161.63 255.7 204.02 282.33 246.34 309.05 203.72 282.8 161.17 256.45 118.67 230.01 97.42 216.8 76.2 203.53 75.92 203.35 75.97 203.02 82.63 165.61 89.35 128.2 96.11 90.81 102.95 53.42"/>
            <path class="t" d="M108.3,52.87l-6.57,37.21-6.64,37.19-6.69,37.18-6.74,37.17-.24-.52c7.32,4.14,14.61,8.33,21.9,12.52,7.28,4.22,14.54,8.46,21.78,12.72,14.49,8.53,28.93,17.15,43.29,25.91,14.33,8.8,28.59,17.72,42.66,26.94,7.03,4.61,13.99,9.34,20.85,14.2,1.71,1.22,3.43,2.43,5.12,3.69,1.69,1.25,3.39,2.49,5.05,3.78l2.5,1.92,2.45,1.98c1.66,1.3,3.21,2.72,4.8,4.08-1.61-1.35-3.18-2.75-4.85-4.03l-2.47-1.95-2.52-1.89c-1.67-1.28-3.38-2.49-5.09-3.72-1.7-1.24-3.43-2.43-5.16-3.63-6.91-4.79-13.94-9.4-20.99-13.97-14.12-9.12-28.43-17.94-42.82-26.65-14.37-8.72-28.83-17.31-43.33-25.81-7.25-4.25-14.52-8.47-21.8-12.67-7.27-4.21-14.56-8.41-21.86-12.57l-.31-.17.06-.35,6.82-37.16,6.88-37.15,6.92-37.14,7-37.13Z"/>
            <path class="t" d="M103.65,210.24c13.13,7,26.15,14.2,39.09,21.53,12.92,7.37,25.76,14.9,38.46,22.65,12.7,7.75,25.24,15.78,37.49,24.24,6.12,4.24,12.15,8.62,18,13.23l2.19,1.73,2.15,1.79,2.15,1.79,2.09,1.85c2.81,2.45,5.46,5.1,7.98,7.88l-.7-.08c11.46-8.29,23.01-16.44,34.61-24.51,11.61-8.06,23.26-16.07,35.06-23.86,2.94-1.97,5.9-3.9,8.85-5.84,2.96-1.93,5.9-3.89,8.89-5.78l8.92-5.73,8.98-5.63c12.03-7.41,24.17-14.67,36.62-21.37-12.37,6.85-24.41,14.24-36.36,21.8-11.96,7.53-23.74,15.33-35.47,23.21-11.72,7.89-23.37,15.89-34.96,23.98-11.58,8.1-23.11,16.27-34.54,24.57l-.38.28-.32-.35c-4.93-5.49-10.61-10.32-16.41-14.94-5.82-4.6-11.83-8.98-17.93-13.23-6.1-4.24-12.29-8.36-18.52-12.41-6.25-4.03-12.54-8-18.85-11.92-12.64-7.83-25.42-15.44-38.29-22.89-12.85-7.49-25.79-14.83-38.83-21.99Z"/>
            <polygon class="t" points="420.27 72.59 428.48 106.48 436.63 140.39 444.75 174.3 452.8 208.23 452.88 208.57 452.58 208.75 407.31 237.17 362 265.52 316.64 293.79 271.2 321.94 316.33 293.3 361.53 264.76 406.78 236.31 452.07 207.93 451.86 208.45 443.88 174.51 435.96 140.55 428.09 106.58 420.27 72.59"/>
            <polygon class="t" points="415.68 72.24 423.47 105.57 431.19 138.91 438.89 172.26 446.52 205.62 446.59 205.95 446.3 206.13 401.72 234.42 357.1 262.64 312.41 290.77 267.66 318.8 312.11 290.29 356.61 261.88 401.18 233.57 445.79 205.32 445.58 205.83 438.02 172.45 430.53 139.06 423.08 105.65 415.68 72.24"/>
            <polygon class="t" points="410.97 71.95 418.18 104.98 425.34 138.03 432.46 171.09 439.52 204.16 439.59 204.49 439.31 204.66 395.4 232.54 351.44 260.34 307.43 288.05 263.35 315.66 307.12 287.57 350.96 259.58 394.85 231.68 438.79 203.85 438.58 204.36 431.59 171.27 424.67 138.17 417.79 105.07 410.97 71.95"/>
            <polygon class="t" points="406.26 72.24 413 105.05 419.68 137.87 426.33 170.7 432.91 203.54 432.97 203.86 432.69 204.04 389.12 231.28 345.51 258.46 301.85 285.54 258.11 312.52 301.54 285.05 345.04 257.69 388.59 230.42 432.18 203.22 431.96 203.73 425.45 170.87 419.01 138 412.61 105.13 406.26 72.24"/>
            <path class="t" d="M254.45,309.38c6.75-4.52,13.55-8.96,20.34-13.44l20.44-13.28c13.65-8.82,27.38-17.52,41.12-26.2,6.89-4.3,13.79-8.6,20.7-12.87,3.45-2.14,6.91-4.27,10.38-6.39,3.47-2.12,6.93-4.24,10.42-6.33,13.93-8.36,27.92-16.66,42.31-24.22l-5.3,3.01c-1.77,1-3.55,1.98-5.29,3.03-3.49,2.07-7.01,4.1-10.48,6.21l-10.44,6.28-10.39,6.37c-13.83,8.53-27.63,17.1-41.37,25.78-13.78,8.61-27.5,17.32-41.24,25.99l-41.21,26.04Z"/>
            <path class="t" d="M252.88,304.14l6.11-5.96,1.54-1.48,1.59-1.42,3.18-2.85,3.19-2.83c1.08-.92,2.19-1.82,3.28-2.74,2.2-1.81,4.36-3.66,6.59-5.44l6.73-5.27c1.12-.88,2.26-1.73,3.4-2.58l3.43-2.55,3.43-2.55,3.47-2.49c2.32-1.65,4.63-3.32,6.96-4.95l7.06-4.81c2.35-1.6,4.74-3.15,7.11-4.72,2.37-1.58,4.76-3.12,7.16-4.65l3.59-2.31,3.63-2.25c2.42-1.5,4.84-3,7.28-4.47,2.43-1.47,4.86-2.95,7.32-4.4,4.91-2.88,9.83-5.73,14.83-8.45-4.88,2.92-9.75,5.87-14.57,8.89-2.42,1.49-4.83,3-7.24,4.52-2.41,1.5-4.8,3.05-7.19,4.59-9.56,6.16-19.07,12.41-28.39,18.92-9.34,6.48-18.53,13.18-27.52,20.15-2.26,1.73-4.44,3.54-6.67,5.31-1.11.89-2.22,1.77-3.32,2.68l-3.24,2.77-3.25,2.76-1.63,1.38-1.57,1.44-6.3,5.75Z"/>
          </g>
          <path class="ab" d="M224.73,321.13c3.84-2.94,13.68-10,24-13.64,2.58-.91,5.43-.54,7.72.95,4.08,2.66,11.04,7.61,17.61,14.22.59.59.29,1.61-.53,1.77-5.89,1.18-25.12,4.16-48.4-1.46-.86-.21-1.1-1.32-.4-1.85Z"/>
          <g>
            <path class="aa" d="M254.45,291.58s43.71-84.02,159.66-97.89l-31.37-132.07s-73.85,15.98-119.39,73.76c0,0-32.46-73.62-134.01-94.03l-19.89,138.72s98.94,21.46,145.01,111.5Z"/>
            <path class="w" d="M254.44,292.72l-.46-.9c-23.74-46.39-61.81-74.17-89.56-89.3-30.08-16.4-54.84-21.88-55.09-21.93l-.48-.1,20.04-139.75.54.11c23.22,4.67,44.73,12.53,63.94,23.36,15.37,8.67,29.31,19.25,41.42,31.45,18.25,18.38,26.86,35.01,28.66,38.74,23.53-29.54,54.51-47.85,76.44-58.04,23.93-11.11,42.54-15.21,42.73-15.25l.5-.11,31.62,133.14-.58.07c-59.76,7.15-99.89,33.32-123.03,54.02-25.06,22.42-36.12,43.39-36.23,43.6l-.47.9ZM110.03,179.67c3.59.85,26.98,6.71,54.89,21.93,17.74,9.67,33.82,21.17,47.79,34.18,17.22,16.04,31.26,34.43,41.75,54.68,2.38-4.22,13.68-23.07,35.99-43.02,14.8-13.24,31.47-24.37,49.57-33.08,22.45-10.81,47.16-17.92,73.45-21.13l-31.11-130.99c-3.11.73-20.38,5.02-42.04,15.08-21.98,10.21-53.1,28.63-76.56,58.39l-.54.68-.35-.8c-.08-.18-8.33-18.59-28.85-39.24-18.87-18.99-52.25-43.8-104.24-54.38l-19.75,137.7Z"/>
          </g>
          <path class="t" d="M262.96,134.55l-2.82,39.23c-.92,13.08-1.88,26.15-2.69,39.24-.88,13.08-1.66,26.16-2.3,39.26-.3,6.55-.61,13.09-.75,19.64-.22,6.55-.21,13.1.06,19.66l-.31-4.91c-.04-.82-.11-1.64-.13-2.46l-.04-2.46-.09-4.92c-.05-1.64,0-3.28,0-4.92.03-6.56.25-13.11.46-19.67.23-6.55.56-13.11.92-19.65.17-3.27.35-6.55.56-9.82l.59-9.82c.46-6.54.9-13.08,1.4-19.62l.74-9.81c.25-3.27.51-6.54.79-9.8l1.71-19.6c.63-6.53,1.22-13.06,1.92-19.58Z"/>
          <path class="ag" d="M371.71,82.71c-49.73,5.76-100.51,58.2-100.51,58.2,4.19,33.07-1.05,108.79-1.05,108.79,34.55-46.59,124.35-75.11,124.35-75.11-11.23-31.66-22.79-91.88-22.79-91.88ZM279.58,226.67c3.4-43.04-.26-84.54-.26-84.54,34.81-33.77,85.06-51.04,85.06-51.04,4.81,30.24,19.37,79.05,19.37,79.05-48.16,13.61-104.17,56.54-104.17,56.54Z"/>
          <path class="ag" d="M142.68,56.79c52.87,7.85,106.45,71.01,106.45,71.01-5.91,37.03-4.18,122.44-4.18,122.44-33.32-53.94-124.4-90-124.4-90,13.09-35.12,22.12-103.46,22.12-103.46ZM237.44,226.93c-1.42-48.57,3.29-98.11,3.29-98.11-37.31-43.23-90.19-63.12-90.19-63.12-6.41,33.81-18.69,90.01-18.69,90.01,53.24,16.78,105.59,71.22,105.59,71.22Z"/>
          <g>
            <path class="t" d="M176.9,90.81l-1.49-.45c-2.38-.71-4.11-2.76-4.42-5.23v-.04s-4.37.62-4.37.62c-.74.11-1.48-.13-2.02-.64-.54-.51-.82-1.23-.76-1.98l.16-1.97h-6.23c-.93,0-1.78-.19-2.51-.57-1-.52-1.58-1.22-1.71-2.07-.27-1.75,1.45-3.49,1.52-3.56l.37.37s-1.6,1.63-1.37,3.11c.11.68.59,1.25,1.43,1.68.66.34,1.42.51,2.27.51h6.8l-.2,2.54c-.05.58.17,1.15.6,1.55.43.4,1.01.59,1.59.5l4.89-.7.07.57c.28,2.26,1.87,4.14,4.05,4.79l1.49.45-.15.5Z"/>
            <path class="t" d="M186.05,100.71c-.25,0-.49-.04-.71-.12-1.79-.64-2.23-3.58-2.32-4.51l-4.44.49-.06-.52,4.98-.55.02.28s.24,3.69,2,4.32c1.07.38,2.54-.42,4.35-2.39l.39.35c-1.62,1.76-3.03,2.65-4.2,2.65Z"/>
            <path class="t" d="M210.25,117.54c-.96-1.3-1.36-2.53-1.18-3.66.12-.72.45-1.25.74-1.6h-1.71c-2,0-3.91-.84-5.24-2.29-4.41-4.82-10.64-5.03-10.7-5.03v-.52c.06,0,6.53.22,11.09,5.2,1.24,1.35,3.01,2.12,4.86,2.12h3.19l-.68.48s-.84.6-1.02,1.74c-.16.98.21,2.08,1.08,3.26l-.42.31Z"/>
            <path class="t" d="M227.12,129.54c-.06-.03-5.9-2.76-6.96-9.62l.52-.08c1.01,6.59,6.6,9.2,6.66,9.22l-.22.48Z"/>
            <path class="t" d="M162.09,97.49c-2.49-4.48-7.5-3.03-7.55-3.02l-.15-.5c.05-.02,5.47-1.57,8.16,3.26l-.46.25Z"/>
            <path class="t" d="M181.41,115.61c-.05,0-.1,0-.15,0-2.05-.23-3.1-5.34-3.41-7.16-.74.8-1.45,1.11-2.11.92-1.64-.46-2.35-3.9-2.6-5.47-1.29,1.81-3.79,3.07-3.91,3.13l-.52.26.15-.57c1.5-5.51-1.43-7.55-1.46-7.57l.29-.44c.13.09,3.07,2.12,1.83,7.55.92-.54,2.81-1.77,3.55-3.26l.4-.79.1.88c.16,1.47.9,5.36,2.32,5.77.54.15,1.19-.25,1.93-1.19l.38-.49.09.61c.28,1.96,1.38,7.09,3.04,7.28.67.08,1.77-.66,3.29-4.6l.49.19c-1.28,3.32-2.49,4.94-3.69,4.94Z"/>
            <path class="t" d="M188.75,120.43l-.52-.07c.17-1.2,0-2.11-.51-2.71-.59-.7-1.44-.74-1.45-.74l.02-.52s1.09.04,1.83.92c.6.72.82,1.77.62,3.12Z"/>
            <path class="t" d="M197.13,125.67l-.52-.07c1-7.98-2.66-8.69-2.7-8.69l.08-.52c.17.03,4.2.74,3.13,9.27Z"/>
            <path class="t" d="M204.53,131.09c-.08,0-.17-.01-.25-.04-.3-.11-.5-.38-.5-.7v-5.77h.52v5.77c0,.14.11.19.14.2.03.01.15.04.24-.07,1.49-1.86,3.58-4.11,5.05-4.21.38-.03.7.08.96.33.23.22.36.52.37.85,0,.36-.14.71-.39.97l-2.63,2.63-.37-.37,2.64-2.63c.16-.16.24-.37.24-.59,0-.19-.07-.35-.2-.47-.15-.14-.34-.2-.57-.19-.99.07-2.7,1.53-4.69,4.01-.14.18-.35.28-.57.28Z"/>
            <path class="t" d="M230.33,150.33c-.26,0-.51-.09-.73-.26-.41-.33-.55-.86-.36-1.35,1.48-3.77,1.15-4.77.82-5.03-.44-.35-1.55.06-3.04,1.11-.32.22-.72.26-1.07.09-.36-.17-.59-.5-.62-.9-.23-2.9-1.14-4.79-2.71-5.64-2.61-1.4-6.23.58-6.27.6l-.25-.46c.16-.09,3.91-2.14,6.77-.6,1.73.93,2.74,2.97,2.98,6.06.02.2.14.38.32.47.18.08.39.07.55-.05,1.77-1.24,3-1.61,3.66-1.09.81.64.6,2.43-.66,5.63-.13.33.02.61.2.75.18.14.48.23.77.03l5.34-3.6.29.43-5.35,3.6c-.2.14-.43.2-.66.2Z"/>
            <path class="t" d="M163.42,115.57c-1.44-.82-1.7-2-1.65-2.89-1.95,2.25-4.17,2.16-5.78,1.63-.78-.26-1.37-.86-1.62-1.66-.18-.57-.15-1.18.05-1.72-1.93.63-3.39.56-4.35-.22-1.54-1.26-1.13-3.85-1.11-3.96l.52.09s-.38,2.41.93,3.47c.9.73,2.41.7,4.48-.1l.85-.33-.55.73c-.4.54-.52,1.24-.32,1.88.2.63.66,1.11,1.28,1.32,2.4.8,4.4-.03,5.94-2.45l.46.26c-.04.09-1.06,2.25,1.13,3.5l-.26.46Z"/>
            <path class="t" d="M169.43,119.51c-.72-.96-1.03-1.77-.9-2.4.09-.47.39-.66.43-.68l.27.45-.13-.22.14.22s-.15.1-.19.36c-.06.33.04.94.81,1.96l-.42.31Z"/>
            <path class="t" d="M195.67,139.45l-4.42-3.21c-.79-.58-1.17-1.55-1-2.5-6.01-.03-6.93-.98-7.09-1.69-.2-.9,1.01-1.83,1.96-2.42l-6.56.44h0c-.45,0-.91-.06-1.38-.19-1.19-.31-2.11-1.25-2.41-2.45-.27-1.11.06-2.21.88-2.96,1.41-1.28,3.31-.28,4.12.43l-.34.39c-.08-.07-2.01-1.72-3.42-.43-.69.63-.95,1.52-.72,2.45.25,1.01,1.03,1.8,2.03,2.06.44.11.85.17,1.24.17l9.09-.62-1.24.59c-1.23.59-2.89,1.72-2.73,2.41.09.39.94,1.28,6.92,1.28h.36l-.12.34c-.28.83.01,1.74.72,2.25l4.42,3.21-.31.42Z"/>
            <path class="t" d="M228.02,164.76c-.34-1.49.54-2.55,1.29-3.16l-2.83.28c-1.32.14-2.58-.18-3.57-.88-.7-.49-1.02-1.05-.96-1.65.08-.9,1.04-1.66,1.76-2.11l-5.39-.39c-.31-.02-.58-.2-.72-.49-.14-.28-.12-.61.06-.87.06-.09.08-.21.04-.31-.04-.11-.12-.18-.23-.22l-7.09-2.03.5-.31c1.3-.8,1.89-1.59,1.77-2.35-.35-2.17-6.25-3.98-8.49-4.5l.12-.51c.34.08,8.4,1.97,8.89,4.93.14.88-.37,1.74-1.52,2.56l5.98,1.71c.27.08.48.27.58.54.1.26.06.55-.09.79-.07.11-.08.23-.02.35.05.11.16.19.29.19l7.31.52-.94.43c-.6.27-2.17,1.18-2.26,2.12-.04.4.21.8.75,1.18.88.63,2.03.91,3.22.79l5.5-.55-1.45.66c-.1.04-2.42,1.12-1.95,3.17l-.51.12Z"/>
            <path class="t" d="M147.33,124.13c-.05-2.27-1.72-2.42-1.79-2.42l.03-.52s2.21.17,2.28,2.93h-.52Z"/>
            <path class="t" d="M155.26,129.89c-.54-1.88-1.36-3.04-1.95-3.68-.23-.24-.55-.38-.88-.38,0,0-.01,0-.02,0-.34,0-.67.15-.89.41-.96,1.09-.98,2-.98,2.01h-.52s.01-1.1,1.11-2.36c.32-.36.78-.58,1.27-.58.5-.02.96.19,1.29.55.63.68,1.51,1.91,2.07,3.89l-.5.14Z"/>
            <path class="t" d="M174.76,144c-.67,0-1.27-.33-1.65-.89-.45-.67-.49-1.54-.11-2.26.19-.36.32-.74.4-1.1-.32.69-.75,1.29-1.28,1.79-.36.33-.86.42-1.31.22-.47-.2-.76-.65-.76-1.16,0-1.61-.41-2.73-1.22-3.34-1.15-.86-2.75-.4-2.77-.39l-.15-.5c.08-.02,1.87-.54,3.23.47.95.71,1.44,1.97,1.43,3.76,0,.36.23.58.44.67.26.11.54.07.74-.12.93-.86,1.51-2.08,1.74-3.61l.24-1.64.27,1.64c.01.08.31,1.92-.55,3.55-.29.55-.26,1.21.08,1.72.31.47.81.7,1.36.66.95-.09,1.74-.84,2.36-2.24l.48.21c-.71,1.59-1.65,2.45-2.79,2.55-.06,0-.12,0-.19,0Z"/>
            <path class="t" d="M197.87,160.5c-.59,0-1.1-.26-1.52-.76-.63-.76-.78-1.85-.4-2.84l.63-1.63c-1.09,1.14-2.11,1.66-3.03,1.54-1.22-.16-1.96-1.37-2.37-2.37-.19-.47-.32-.99-.41-1.6-.37-2.69-1.11-4.26-2.15-4.56-1.42-.4-3.06,1.57-3.07,1.59l-.41-.33c.07-.09,1.87-2.26,3.62-1.77,1.28.36,2.13,2.04,2.53,4.99.08.57.2,1.05.37,1.47.35.86.98,1.92,1.96,2.05.99.13,2.19-.73,3.56-2.55l1.13-1.51-1.87,4.85c-.31.82-.19,1.7.31,2.32.32.38.71.57,1.12.57.92,0,2.13-.89,3.5-2.57l.41.33c-1.5,1.83-2.81,2.76-3.91,2.77h0Z"/>
            <path class="t" d="M225.45,178.14l-.05-.66c-.13-1.7-.71-2.86-1.73-3.44-2.18-1.24-5.71.49-5.74.51l-.5.25.13-.54c.72-3.03.54-5.14-.53-6.27-1.08-1.14-2.92-1.1-4.27-.85-.57.1-1.13-.09-1.52-.51-.38-.41-.52-.98-.37-1.52.14-.49.03-1-.28-1.4-.31-.4-.77-.63-1.28-.63h-1.44v-.52h1.44c.67,0,1.29.31,1.7.84.41.53.54,1.21.37,1.86-.1.37-.01.75.25,1.03.26.29.65.42,1.04.35,2.12-.38,3.76-.03,4.74,1.01,1.14,1.2,1.4,3.3.78,6.24,1.1-.46,3.81-1.38,5.74-.28,1.05.59,1.69,1.67,1.93,3.22l3.8-4.74.41.33-4.6,5.75Z"/>
            <path class="t" d="M233.82,183.9c-1.01-1.35-2.13-2.11-3.3-2.25-1.49-.18-2.59.71-2.6.72l-.34-.4c.05-.04,1.27-1.04,2.99-.84,1.33.16,2.56.98,3.67,2.46l-.42.31Z"/>
            <path class="t" d="M161.19,152.58c-1.64-.55-2.73-1.41-3.25-2.55-.43-.96-.35-1.88-.22-2.46l-3.39,1.54c-.44.2-.94.13-1.31-.18-.37-.31-.53-.79-.41-1.25l.49-2.4-7.02.5h0c-1.39,0-2.58-.93-2.84-2.21-.13-.61-.02-1.13.32-1.55.77-.95,2.47-.96,2.54-.96v.52s-1.53.01-2.14.76c-.24.29-.31.65-.21,1.11.21,1.04,1.19,1.79,2.31,1.79l7.69-.55-.62,3.08c-.07.28.02.55.23.73.22.18.5.22.75.1l4.53-2.06-.26.62s-.54,1.31.05,2.62c.45,1,1.44,1.76,2.93,2.26l-.17.5Z"/>
            <path class="t" d="M166.37,155.75c-2.75-1.6-2.23-4.48-2.22-4.51l.51.1c-.02.1-.45,2.56,1.97,3.96l-.26.45Z"/>
            <path class="t" d="M172.06,158.25c-1.94-2.42-3.85-1.51-3.87-1.5l-.23-.47s2.31-1.11,4.51,1.64l-.41.33Z"/>
            <path class="t" d="M184.64,167.93c-1.41-1.85-1.05-2.93-.5-3.52.07-.08.05-.16.03-.2-.01-.03-.06-.11-.17-.11h-3.96c-.88,0-1.71-.39-2.28-1.07-.53-.64-.75-1.46-.6-2.25.52-2.74,4.37-2.45,4.53-2.44l-.04.52s-3.54-.26-3.97,2.01c-.12.65.05,1.29.48,1.82.46.56,1.15.88,1.87.88h3.96c.29,0,.54.16.65.43.11.26.06.56-.14.76-.6.63-.41,1.59.54,2.84l-.41.32Z"/>
            <path class="t" d="M202.72,181.1c-.43,0-.85-.15-1.18-.44-1.22-1.06-1.62-2.65-1.75-3.79-.01-.11-.08-.21-.18-.25-.1-.05-.21-.04-.3.02l-3.95,2.47.2-.67c.64-2.07.54-3.68-.28-4.8-1.21-1.64-3.63-1.67-3.66-1.67v-.52c.11,0,2.71.02,4.08,1.88.84,1.13,1.02,2.68.54,4.61l2.78-1.74c.25-.15.55-.17.81-.04.26.13.44.38.47.67.12,1.05.48,2.5,1.57,3.45.31.27.71.37,1.11.29.39-.08.71-.33.88-.68.58-1.22,1.57-2.68,2.95-2.68v.52c-1.11,0-1.96,1.29-2.48,2.38-.24.5-.69.85-1.24.97-.12.03-.25.04-.37.04Z"/>
            <path class="t" d="M219.73,195.46l-2.03-1.69c-.77-.64-1.14-1.61-1-2.6l.14-1.01c.02-.14-.03-.27-.14-.36-.12-.09-.26-.11-.4-.05-1.56.65-2.54.47-3.08.2-.52-.26-.84-.81-.81-1.41l.11-2.09c0-.12-.04-.24-.12-.33-.08-.09-.2-.14-.32-.14h-4.22v-.52h4.22c.27,0,.52.11.7.3.18.19.28.45.26.71l-.11,2.09c-.02.39.18.74.52.91.45.22,1.27.36,2.65-.21.31-.13.66-.09.93.12.26.2.39.52.34.85l-.14,1.01c-.12.81.19,1.6.82,2.12l2.03,1.69-.34.4Z"/>
            <path class="t" d="M210.33,198.62c-7.29-4.69-10.51-9.45-10.54-9.5l.43-.29s3.2,4.73,10.39,9.35l-.28.44Z"/>
            <path class="t" d="M227.6,214.7l-5.44-3.96c-.58-.42-1.07-.98-1.41-1.61-1.71-3.13-4.19-5.84-7.16-7.82l-1.68-1.12.29-.44,1.68,1.12c3.04,2.03,5.58,4.8,7.32,8,.31.56.74,1.06,1.26,1.43l5.44,3.96-.31.42Z"/>
            <path class="t" d="M194.33,187.03c-3.78-6.1-10.01-7.21-10.07-7.22l-.25-.04.41-2.71c.03-.21-.03-.42-.18-.57-.14-.16-.34-.24-.56-.22l-2.85.17c-.44.02-.84-.18-1.09-.54-.24-.36-.27-.82-.08-1.21.13-.26.12-.55-.02-.81-.14-.25-.38-.42-.67-.46-4.56-.62-8.29-3.48-8.45-3.6l.32-.41s3.78,2.9,8.2,3.5c.46.06.84.33,1.06.73.22.4.23.87.03,1.28-.11.22-.09.48.05.69.14.21.37.33.62.31l2.85-.17c.37-.02.73.12.97.39.25.27.36.64.31,1.01l-.33,2.21c1.24.28,6.72,1.82,10.18,7.41l-.45.27Z"/>
            <path class="t" d="M154.23,161.36c-2.99-5.48-7.84-3.63-8.05-3.55l-.19-.49c.05-.02,5.49-2.11,8.7,3.78l-.46.25Z"/>
          </g>
          <g>
            <path class="t" d="M288.49,215.83c-.07-.07-1.61-1.8-1.28-3.45.16-.8.74-1.44,1.72-1.89.71-.33,1.52-.47,2.41-.43l5.87.28-.06-1.85c-.02-.71.28-1.38.82-1.84.54-.46,1.25-.65,1.95-.52l4.08.79v-.02c.41-2.32,2.15-4.18,4.43-4.75l1.43-.35.13.51-1.43.35c-2.08.52-3.67,2.21-4.04,4.33l-.1.55-4.6-.89c-.54-.11-1.09.04-1.51.4s-.65.88-.63,1.43l.07,2.42-6.44-.31c-.8-.04-1.53.09-2.16.38-.81.37-1.29.88-1.42,1.52-.29,1.39,1.13,2.98,1.15,2.99l-.39.35Z"/>
            <path class="t" d="M316.33,197.7l-4.7-.75.08-.52,4.16.67c.14-.89.69-3.63,2.41-4.15,1.25-.38,2.77.5,4.54,2.62l-.4.34c-1.6-1.91-2.98-2.76-3.99-2.45-1.68.51-2.07,3.94-2.08,3.98l-.03.27Z"/>
            <path class="t" d="M324.95,189.66s-.04,0-.05,0l.02-.52c.06,0,5.95.08,10.34-4.26,1.33-1.32,3.18-2.03,5.07-1.93l1.58.08c-.25-.34-.53-.85-.61-1.52-.12-1.08.31-2.23,1.28-3.42l.41.33c-.88,1.07-1.28,2.09-1.17,3.03.12,1.08.87,1.66.88,1.67l.66.51-3.06-.15c-1.74-.07-3.45.57-4.67,1.78-4.33,4.29-10.09,4.41-10.68,4.41Z"/>
            <path class="t" d="M352.58,176.39l-.51-.1c1.31-6.45,6.96-8.76,7.02-8.78l.19.49c-.05.02-5.45,2.24-6.7,8.4Z"/>
            <path class="t" d="M291.06,198.15c-1.33,0-2.31-.33-2.33-.34l.17-.49c.19.07,4.71,1.6,7.26-2.5l.45.28c-1.56,2.51-3.84,3.06-5.54,3.06Z"/>
            <path class="t" d="M301.53,193.93l-.27-.45c.12-.07,2.88-1.82,1.72-7.07l-.13-.57.51.29c.11.06,2.39,1.36,3.54,3.12.31-1.5,1.15-4.67,2.71-5.03.63-.14,1.28.17,1.94.95.38-1.73,1.61-6.47,3.55-6.59,1.19-.08,2.31,1.51,3.41,4.85l-.5.16c-1.32-3.98-2.36-4.53-2.88-4.49-1.57.1-2.84,4.89-3.19,6.73l-.12.6-.35-.5c-.65-.92-1.23-1.32-1.75-1.2-1.35.31-2.22,3.95-2.44,5.33l-.14.87-.36-.81c-.63-1.42-2.32-2.67-3.18-3.22.91,5.17-1.96,6.96-2.08,7.03Z"/>
            <path class="t" d="M319.92,178.09h-.01v-.52s.82,0,1.41-.63c.5-.54.7-1.39.59-2.52l.52-.05c.12,1.29-.13,2.28-.73,2.94-.71.77-1.66.79-1.77.79Z"/>
            <path class="t" d="M327.19,178.44l-.05-.52.03.26-.03-.26s3.51-.5,2.93-8.08l.52-.04c.62,8.12-3.23,8.62-3.4,8.64Z"/>
            <path class="t" d="M337.32,171.15l-.52-.03.26-5.45c.01-.31.22-.56.51-.65.29-.09.6.02.78.26,1.77,2.43,3.31,3.89,4.23,4,.21.02.39-.02.53-.15.12-.1.2-.26.21-.43.01-.2-.06-.4-.2-.56l-2.37-2.61.39-.35,2.37,2.61c.23.26.35.6.33.94-.02.31-.16.6-.39.79-.26.22-.58.31-.94.27-1.39-.17-3.27-2.38-4.59-4.22-.07-.1-.17-.08-.2-.07-.03,0-.13.05-.14.17l-.26,5.45Z"/>
            <path class="t" d="M353.43,159.88c-2.19,0-4.23-1.24-4.34-1.31l.28-.44s3.36,2.05,5.88.85c1.52-.72,2.46-2.47,2.81-5.19.05-.38.29-.69.63-.83.35-.14.73-.09,1.03.14,1.33,1.04,2.38,1.48,2.8,1.18.32-.23.68-1.15-.55-4.77-.16-.48,0-.98.41-1.28.4-.29.93-.29,1.33,0l4.89,3.64-.31.42-4.89-3.64c-.26-.19-.54-.13-.71,0-.18.13-.33.37-.22.69,1.05,3.09,1.16,4.8.36,5.37-.65.47-1.81.06-3.42-1.2-.14-.11-.33-.14-.5-.07-.17.07-.29.23-.31.41-.37,2.91-1.42,4.8-3.1,5.6-.66.31-1.36.43-2.04.43Z"/>
            <path class="t" d="M284.18,185.48c-.01-.11-.28-2.58,1.24-3.71.93-.69,2.31-.7,4.1-.02-.16-.52-.15-1.09.04-1.61.27-.74.86-1.29,1.61-1.5,1.54-.43,3.64-.42,5.38,1.77,0-.85.32-1.93,1.7-2.63l.24.47c-2.11,1.07-1.25,3.15-1.22,3.24l-.47.23c-1.34-2.36-3.19-3.22-5.48-2.58-.59.16-1.05.59-1.26,1.18-.22.59-.14,1.26.22,1.78l.51.75-.83-.37c-1.92-.84-3.33-.95-4.21-.3-1.28.94-1.03,3.2-1.03,3.23l-.52.06Z"/>
            <path class="t" d="M303.52,177.26s-.31-.22-.38-.67c-.09-.61.24-1.36.97-2.24l.4.33c-.77.93-.89,1.5-.86,1.81.03.24.15.33.16.34l-.29.43Z"/>
            <path class="t" d="M311.82,170.61c-.56,0-1.13-.18-1.61-.66-.75-.75-1.01-1.82-.7-2.86.33-1.12,1.25-1.97,2.4-2.21.46-.1.9-.14,1.31-.12l6.13.71c-.88-.6-1.92-1.52-1.69-2.36.19-.67,1.09-1.52,6.77-1.28-.12-.9.29-1.8,1.07-2.31l4.32-2.84.29.44-4.33,2.84c-.69.45-1,1.29-.78,2.08l.1.35-.36-.02c-5.64-.27-6.48.53-6.58.88-.18.64,1.33,1.78,2.46,2.38l1.21.65-8.66-1.01c-.35-.02-.74.02-1.16.11-.96.2-1.72.91-2,1.85-.26.86-.05,1.71.57,2.34,1.27,1.27,3.21-.24,3.23-.26l.33.41c-.5.39-1.4.88-2.32.88Z"/>
            <path class="t" d="M338.21,151.62l-.09-.52c2.14-.39,7.79-1.83,8.22-3.85.15-.71-.37-1.48-1.55-2.29l-.49-.34,6.83-1.6c.1-.02.18-.09.22-.18.04-.09.03-.2-.02-.29-.16-.26-.16-.57-.02-.84.15-.26.41-.43.72-.43l5.07-.12c-.66-.46-1.5-1.21-1.54-2.06-.03-.58.31-1.09.99-1.53.97-.62,2.19-.86,3.42-.67l2.62.39c-.68-.62-1.43-1.65-1.05-3.03l.5.14c-.54,1.91,1.66,3.06,1.68,3.07l1.43.73-5.27-.79c-1.11-.16-2.2.05-3.06.6-.52.33-.77.69-.75,1.07.04.88,1.47,1.81,2.02,2.09l.91.47-6.98.16c-.16,0-.24.12-.27.16-.03.05-.08.17,0,.32.14.23.16.51.05.76-.11.25-.32.43-.58.49l-5.7,1.33c1.04.83,1.48,1.66,1.3,2.49-.6,2.78-8.31,4.2-8.64,4.26Z"/>
            <path class="t" d="M281.66,171.69v-.52s0,.26,0,.26v-.26c.06,0,1.63-.06,1.78-2.2l.52.04c-.19,2.62-2.28,2.68-2.3,2.68Z"/>
            <path class="t" d="M288.39,168.11s-.07,0-.1,0c-.47-.03-.9-.25-1.19-.62-.99-1.24-.95-2.24-.94-2.29l.52.03h-.26s.26,0,.26,0c0,0-.02.86.83,1.94.2.25.49.4.81.42.32.02.63-.09.86-.32.59-.58,1.42-1.63,2.01-3.38l.5.17c-.63,1.85-1.51,2.97-2.14,3.59-.31.3-.72.47-1.15.47Z"/>
            <path class="t" d="M308.93,159.14l-.16-1.65c-.14-1.45-.64-2.62-1.47-3.48-.18-.19-.43-.24-.68-.15-.2.08-.43.28-.44.6-.08,1.69-.6,2.87-1.54,3.5-1.34.9-3.02.32-3.08.3l.17-.49s1.51.51,2.62-.24c.79-.53,1.23-1.57,1.3-3.09.02-.49.32-.9.78-1.07.44-.17.91-.06,1.24.27.45.46.81,1.01,1.08,1.63-.06-.31-.16-.62-.3-.92-.33-.7-.25-1.52.21-2.14.42-.57,1.09-.86,1.79-.76,1.09.15,1.94,1.01,2.53,2.55l-.49.19c-.52-1.35-1.24-2.09-2.12-2.22-.51-.07-.99.13-1.3.55-.34.46-.4,1.08-.15,1.61.74,1.58.37,3.32.36,3.39l-.35,1.62Z"/>
            <path class="t" d="M323.27,148.58c-1.52,0-2.87-1.8-2.94-1.89l.42-.31s1.47,1.96,2.82,1.64c.99-.23,1.77-1.68,2.23-4.2.11-.57.26-1.06.46-1.49.43-.92,1.19-2.04,2.36-2.14.87-.07,1.79.45,2.75,1.54l-.5-1.5c-.32-.96-.12-1.99.51-2.68.42-.46.92-.69,1.48-.65,1.04.05,2.24.99,3.57,2.8l-.42.31c-1.54-2.08-2.58-2.56-3.18-2.59-.4-.02-.75.14-1.07.48-.5.55-.66,1.38-.4,2.16l1.58,4.77-1.06-1.56c-1.18-1.75-2.3-2.64-3.23-2.56-.92.07-1.56,1.04-1.93,1.84-.18.39-.32.84-.42,1.37-.52,2.78-1.4,4.33-2.63,4.61-.14.03-.28.05-.42.05Z"/>
            <path class="t" d="M343.86,135.53s-.07,0-.1,0l-1.36-.07.03-.52,1.36.07c.48.02.92-.17,1.23-.54.31-.36.43-.84.32-1.3-.12-.52.05-1.06.42-1.44.39-.38.94-.54,1.48-.41,1.26.29,2.99.42,4.06-.6,1.07-1.02,1.33-3,.79-5.89l-.1-.55.49.27s3.27,1.81,5.39.75c.99-.5,1.59-1.56,1.79-3.16l.08-.66,4.11,5.68-.42.31-3.35-4.63c-.3,1.44-.96,2.42-1.97,2.93-1.87.94-4.37-.03-5.4-.52.45,2.8.1,4.76-1.03,5.85-.98.94-2.55,1.2-4.54.74-.36-.08-.73.02-.99.28-.25.25-.36.6-.28.95.14.63-.02,1.26-.43,1.75-.39.46-.95.72-1.56.72Z"/>
            <path class="t" d="M364.47,118.95c-1.5,0-2.5-.9-2.54-.95l.35-.39s1,.89,2.41.8c1.11-.08,2.2-.74,3.21-1.97l.4.33c-1.11,1.35-2.32,2.07-3.59,2.16-.09,0-.17,0-.25,0Z"/>
            <path class="t" d="M283.05,152.92c-.07,0-1.68-.09-2.37-1.03-.3-.41-.38-.91-.23-1.49.31-1.2,1.47-2.04,2.79-1.97l6.61.79-.35-2.28c-.09-.44.08-.89.45-1.17.37-.28.85-.32,1.26-.11l3.11,1.6c-.09-.55-.11-1.42.33-2.29.54-1.06,1.62-1.82,3.2-2.27l.14.5c-1.43.4-2.4,1.07-2.87,2-.62,1.21-.17,2.45-.16,2.46l.23.63-4.22-2.17c-.23-.12-.5-.1-.7.06s-.3.4-.25.66l.45,2.97-7.28-.87c-1.04-.05-1.99.61-2.24,1.58-.11.42-.06.77.15,1.05.54.73,1.96.81,1.97.81l-.03.52Z"/>
            <path class="t" d="M300.57,144.13s-.37-2.79,2.31-4.18l.24.47c-2.35,1.22-2.04,3.62-2.03,3.64l-.52.07Z"/>
            <path class="t" d="M305.66,139.82c-.75,0-1.24-.27-1.26-.27l.26-.46c.07.04,1.78.94,3.7-1.24l.39.35c-1.15,1.31-2.28,1.62-3.1,1.62Z"/>
            <path class="t" d="M317.38,138.22c-.65,0-3.74-.13-4.07-2.52-.11-.76.14-1.53.67-2.11.57-.62,1.37-.96,2.21-.91l3.74.18c.09,0,.14-.06.15-.09.01-.03.04-.1-.02-.17-.5-.58-.79-1.62.64-3.32l.4.34c-.95,1.13-1.17,2.02-.64,2.64.18.21.22.5.1.74-.12.25-.36.41-.65.38l-3.74-.18c-.68-.03-1.34.24-1.8.74-.43.47-.62,1.07-.54,1.68.3,2.16,3.62,2.07,3.65,2.07l.02.52s-.05,0-.12,0Z"/>
            <path class="t" d="M327.61,126.31c-.08,0-.12,0-.14,0l.03-.52s2.31.09,3.52-1.4c.82-1.01.99-2.53.48-4.51l-.17-.68,3.65,2.53c.08.06.18.07.27.03.1-.04.16-.12.17-.22.17-1.08.63-2.56,1.83-3.51.43-.34.97-.45,1.5-.32.52.13.93.49,1.14.98.44,1.05,1.18,2.3,2.22,2.35l-.03.52c-1.31-.06-2.18-1.49-2.68-2.67-.14-.34-.43-.58-.79-.68-.37-.09-.75-.02-1.05.22-1.07.85-1.48,2.2-1.64,3.18-.04.28-.22.51-.48.62-.26.11-.54.08-.77-.08l-2.52-1.75c.35,1.83.1,3.28-.73,4.31-1.22,1.49-3.26,1.59-3.81,1.59Z"/>
            <path class="t" d="M347.49,113.99s-.03,0-.05,0l-3.99-.19.03-.52,3.99.19c.11,0,.22-.03.3-.11.08-.08.13-.18.12-.29v-1.99c0-.57.32-1.08.83-1.3.53-.23,1.47-.36,2.91.33.12.06.26.05.37-.03.1-.07.16-.19.14-.32l-.09-.96c-.09-.95.31-1.85,1.07-2.42l2-1.51.31.42-2,1.5c-.61.46-.93,1.19-.86,1.96l.09.96c.03.32-.11.61-.37.8-.26.18-.6.21-.9.07-1.27-.6-2.05-.51-2.48-.32-.32.14-.52.46-.52.82v1.99c.01.26-.09.5-.28.67-.18.17-.4.26-.64.26Z"/>
            <path class="t" d="M336.41,110.26l-.42-.31s3.3-4.4,10.4-8.5l.26.45c-7,4.04-10.21,8.31-10.25,8.35Z"/>
            <polygon class="t" points="348.21 100.49 347.94 100.04 349.59 99.06 349.86 99.51 348.21 100.49"/>
            <path class="t" d="M307.76,127.28l-.3-.43c.16-.11,3.81-2.65,8.15-3.02.27-.02.5-.17.64-.4.14-.23.16-.5.05-.75-.16-.39-.11-.82.14-1.15.25-.34.65-.51,1.07-.46l2.69.29c.2.02.38-.05.52-.18.14-.14.2-.33.19-.52l-.26-2.59.26-.03c.06,0,6-.78,9.84-6.35l.43.3c-3.52,5.11-8.75,6.32-9.96,6.54l.21,2.09c.04.35-.09.7-.34.95-.25.25-.6.37-.95.33l-2.69-.29c-.23-.03-.45.07-.59.26-.14.19-.16.42-.07.64.17.4.14.85-.08,1.22-.23.38-.61.61-1.05.65-4.21.36-7.86,2.9-7.9,2.93Z"/>
          </g>
        </g>
        <polygon class="aa" points="379.3 78.24 400.34 179.24 380.44 184.97 326.12 209.46 291.69 235.47 267.2 258.43 267.2 144.8 267.2 136.39 309.67 102.34 357.11 80.92 379.3 78.24"/>
        <polygon class="aa" points="139.04 54.14 118 155.13 122.21 169.67 172.73 190.19 201.78 217.88 250.37 266.46 256.49 132.95 245.78 116.88 208.67 78.24 161.23 56.81 139.04 54.14"/>
        <g>
          <g>
            <path class="t" d="M319.99,219.97c-13.85,0-23.97-8.72-27.05-23.33-.1-.47-.19-.85-.27-1.17-.17.1-.35.22-.55.36-17.23,11.55-36.84,15.42-55.81,19.16-6.14,1.21-12.49,2.46-18.6,3.95-.71.17-1.48.34-2.42.34-1.99,0-3.82-.78-5.45-2.33l-3.96-3.75,4.91-2.36c1.15-.56,2.28-1.11,3.38-1.65,2.4-1.18,4.67-2.29,7.04-3.35,6.64-2.96,13.44-5.84,20.01-8.62,15.61-6.62,31.75-13.47,46.86-21.72,4.31-2.36,6.05-4.55,6.63-8.39.76-5.03,2.05-10.41,6.3-15.76l5.81-7.31.86,9.3c.38,4.08-.56,7.61-1.38,10.73-.06.23-.12.46-.18.69,6.01-3.74,11.63-7.52,16.28-12.37.45-.47.7-.73.05-2.24-1.59-3.68-3.14-7.38-4.7-11.08-2.48-5.91-5.05-12.03-7.73-17.95-2.24-4.94-1.16-9.51-.3-13.19.2-.84.4-1.68.55-2.53.67-3.58,3.11-4.85,5.18-4.85,1.73,0,3.46.86,5.01,2.49l.07.07c3.37,3.56,6.85,7.23,10.22,10.93.78.86,2.84,3.12,1.99,5.86-.45,1.44-1.57,2.51-3.11,2.95.51.71,1.01,1.45,1.33,2.32.35.95.71,1.9,1.07,2.85,2.88,7.6,5.86,15.45,4.3,24.65-1.45,8.56-5.24,15.41-11.59,20.93-4.82,4.19-11.29,9.55-18.56,13.82-1.06.62-1.28,1.02-1.3,1.04h0s0,.51.8,1.9c2.48,4.3,8.3,7.08,14.83,7.08,1.38,0,2.79-.12,4.17-.37,4.79-.85,9.55-2.56,14.55-5.24,12.95-6.93,24.5-15.91,34.33-26.69,1.21-1.33,2.39-2.73,2.91-4-2.6.42-5.28.64-7.96.64-2.27,0-4.58-.15-6.87-.46-5.41-.71-9.63-2.95-12.22-6.48-2.6-3.54-3.48-8.28-2.54-13.69.77-4.44,2.23-8.23,4.47-11.59,4.15-6.23,9.6-9.66,15.34-9.66,5.11,0,10.07,2.64,14.35,7.65,2.2,2.57,4.32,5.63,6.3,9.08.08.13.14.24.2.33.13-.05.31-.13.52-.23,7.09-3.47,13.39-6.73,18.82-11.44l.22-.19c1.01-.89,2.7-2.38,5.07-2.38,1.22,0,2.41.41,3.43,1.18,2.67,2.01,2.03,6.13,1.88,6.94-.1.54-.22,1.08-.33,1.63-1,4.69-.84,5.68,1.03,6.64,1.79.92,3.64,1.38,5.49,1.38,2.66,0,5.41-.94,8.16-2.8,1.58-1.06,2.93-2.58,4.26-4.78,1.64-2.71,3.34-5.37,5.04-7.92.12-.18.24-.38.36-.58.8-1.33,2.46-4.11,5.81-4.11.64,0,1.28.11,1.92.32,1.63.55,5.22,2.44,3.32,8.15-.07.21-.15.41-.19.6-.38,1.98-.15,3.6.65,4.57.87,1.06,2.4,1.28,3.53,1.28.35,0,.72-.02,1.1-.06.03,0,.06,0,.09-.01-2.61-4.9-.88-9.33.39-12.59.36-.92.7-1.79.93-2.61.88-3.12,3.19-4.23,5.06-4.23s3.77,1.11,5.05,3.04c.96,1.46,2.01,3.22,2.52,5.27,2.59,10.38.18,20.08-6.99,28.05-3.21,3.57-7.34,5.54-11.62,5.54h0c-4.33,0-8.44-2-11.59-5.63-.07-.08-.14-.16-.2-.23-.02.03-.04.06-.06.09-5.04,7.22-12.07,11.03-20.32,11.03h-.32c-9.39-.11-14.7-3.85-17.58-12.45-3.65,2.53-7.61,5.06-11.87,6.96-.35.16-.49.31-.85,2.25l-.04.19c-1.8,9.72-6.24,18.24-13.55,26.05-11.76,12.56-22.9,21.45-35.05,27.96-4.67,2.5-9.01,4.18-13.27,5.14-2.87.64-5.68.97-8.36.97Z"/>
            <path class="am" d="M315.43,104.3c.71,0,1.54.54,2.28,1.32,3.44,3.63,6.87,7.26,10.24,10.95.67.73,2.04,2.35.52,2.7-6.78,1.57-1.83,5.09-1.05,7.2,3.06,8.29,6.76,16.3,5.2,25.58-1.27,7.53-4.57,13.69-10.35,18.72-5.68,4.93-11.53,9.62-18,13.42-3.84,2.25-3.78,4.71-1.85,8.06,3.2,5.55,10.24,8.95,18.09,8.95,1.58,0,3.2-.14,4.82-.43,5.53-.98,10.73-2.98,15.67-5.62,13.34-7.14,25.14-16.29,35.33-27.47,1.53-1.68,3.13-3.57,3.82-5.66.78-2.38.93-4.83-2.18-4.83-.43,0-.91.05-1.47.14-2.64.47-5.31.69-7.99.69-2.13,0-4.26-.14-6.38-.42-8.94-1.18-13.1-6.91-11.55-15.81.63-3.62,1.83-7.05,3.9-10.15,3.53-5.3,7.82-7.98,12.22-7.98,3.89,0,7.87,2.09,11.49,6.33,2.23,2.61,4.18,5.52,5.9,8.51.93,1.62,1.9,2.33,3.11,2.33.74,0,1.56-.26,2.53-.73,6.92-3.39,13.75-6.87,19.62-11.97.81-.71,1.77-1.65,2.83-1.65.38,0,.77.12,1.18.43.62.47.65,2.18.45,3.23-.87,4.54-2.69,9.57,2.68,12.31,2.39,1.22,4.8,1.79,7.2,1.79,3.52,0,6.99-1.23,10.26-3.45,2.26-1.53,3.95-3.61,5.37-5.94,1.59-2.63,3.24-5.23,4.95-7.78.81-1.2,1.53-3.02,3.04-3.02.22,0,.46.04.72.13,2.41.81.93,2.96.64,4.48-1.18,6.21,2.02,10.3,7.87,10.3.48,0,.99-.03,1.51-.09,3.42-.38,5.14-1.74,3.12-5.28-2.61-4.58.34-8.55,1.5-12.64.29-1.04.84-1.49,1.45-1.49.64,0,1.35.5,1.91,1.35.84,1.27,1.65,2.66,2.01,4.11,2.32,9.27.16,17.63-6.14,24.63-2.58,2.87-5.71,4.3-8.83,4.3s-6.25-1.45-8.76-4.34c-1.31-1.51-2.26-2.32-3.19-2.32s-1.81.79-2.99,2.49c-4.11,5.89-9.77,9.43-17.24,9.43-.09,0-.18,0-.28,0-8.02-.09-11.97-2.98-14.32-10.67-.37-1.22-.78-2.43-1.31-4.05-5.13,3.69-9.98,7.13-15.4,9.56-2.34,1.05-2.66,3.13-3.04,5.19-1.73,9.35-6.11,17.24-12.6,24.17-10.05,10.74-21.05,20.24-34.08,27.22-3.9,2.09-7.97,3.81-12.32,4.78-2.63.59-5.15.88-7.54.88-11.92,0-20.6-7.2-23.38-20.35-.67-3.16-1.32-4.81-2.86-4.81-.89,0-2.07.54-3.72,1.65-22.12,14.83-48.35,16.53-73.21,22.58-.47.12-.98.24-1.54.24-.85,0-1.8-.28-2.87-1.3,3.61-1.74,6.92-3.44,10.32-4.95,22.46-9.99,45.5-18.66,67.14-30.48,4.74-2.59,7.7-5.55,8.54-11.12.69-4.58,1.81-9.31,5.53-13.99.62,6.67-3,11.75-2.6,18.39,8.78-5.4,17.05-10.11,23.76-17.11,1.86-1.94,1.8-3.97.78-6.33-4.18-9.68-8.1-19.48-12.46-29.09-2.15-4.74-.29-9.06.53-13.47.24-1.28.8-1.79,1.49-1.79M366.38,143.95c1.94,0,3.98-.32,6.22-1.11-2.55-3.46-5.16-5.77-8.86-5.77-.49,0-.99.04-1.51.12-1.69.26-3.49.86-3.41,3.13.06,1.81,1.39,2.7,2.94,3.05,1.52.35,3.05.56,4.63.56M315.43,96.79h0c-3.68,0-7.85,2.45-8.87,7.92-.14.73-.32,1.52-.52,2.36-.94,4.01-2.23,9.49.53,15.59,2.66,5.87,5.22,11.96,7.69,17.85,1.42,3.38,2.88,6.87,4.37,10.31-2.2,2.15-4.6,4.08-7.18,5.92.07-1.2.06-2.45-.06-3.75l-1.73-18.6-11.63,14.62c-4.82,6.05-6.28,12.26-7.07,17.54-.36,2.36-1.09,3.67-4.71,5.65-14.94,8.16-31,14.97-46.53,21.56-6.58,2.79-13.39,5.68-20.06,8.65-2.44,1.08-4.74,2.21-7.18,3.41-1.1.54-2.21,1.08-3.35,1.63l-9.82,4.73,7.91,7.49c2.93,2.77,5.98,3.35,8.03,3.35,1.47,0,2.67-.29,3.31-.45,6.04-1.47,12.34-2.72,18.44-3.92,17.93-3.54,36.43-7.19,53.27-17.25,4.39,14.06,15.25,22.31,29.69,22.31,2.95,0,6.04-.36,9.18-1.06,4.6-1.03,9.25-2.83,14.22-5.49,12.52-6.71,23.96-15.83,36.01-28.71,7.82-8.35,12.56-17.49,14.5-27.93l.04-.2s.02-.08.02-.13c2.57-1.24,5.01-2.65,7.33-4.14,3.77,7.07,9.99,10.46,19.21,10.57h.36c8.16,0,15.27-3.2,20.76-9.31,3.36,2.63,7.3,4.05,11.42,4.05,5.36,0,10.48-2.41,14.41-6.79,8.04-8.94,10.75-19.83,7.84-31.48-.65-2.61-1.96-4.8-3.03-6.42-1.98-3-4.96-4.73-8.18-4.73-4.08,0-7.48,2.73-8.68,6.96-.11.39-.27.84-.45,1.32-1.73-2.14-4.09-3.02-4.57-3.18-1.02-.34-2.07-.52-3.12-.52-5.48,0-8.05,4.31-9.03,5.93-.09.15-.17.29-.26.42-1.74,2.6-3.47,5.32-5.13,8.06-1.04,1.72-2.04,2.87-3.15,3.62-2.12,1.43-4.16,2.16-6.06,2.16-1.12,0-2.22-.25-3.35-.76.09-.78.33-1.91.5-2.73.12-.57.24-1.14.35-1.7.32-1.67,1.02-7.38-3.31-10.64-1.68-1.26-3.65-1.93-5.69-1.93-3.79,0-6.33,2.24-7.55,3.31l-.2.18c-4.44,3.85-9.64,6.73-15.44,9.63-1.62-2.57-3.33-4.91-5.09-6.97-6.33-7.41-12.85-8.96-17.2-8.96-7.04,0-13.6,4.02-18.47,11.33-2.53,3.8-4.18,8.06-5.04,13.02-1.42,8.15.96,13.5,3.21,16.56,2.24,3.05,6.62,6.9,14.76,7.98,2.29.3,4.61.47,6.89.49-8.92,9.17-19.19,16.89-30.58,22.99-4.64,2.49-9.04,4.07-13.43,4.85-1.17.21-2.35.31-3.51.31-4.47,0-8.58-1.58-10.75-4.05,6.84-4.23,12.87-9.24,17.44-13.21,7.04-6.12,11.23-13.68,12.83-23.14,1.72-10.21-1.58-18.92-4.5-26.61-.33-.87-.66-1.74-.98-2.62.8-.87,1.4-1.9,1.76-3.06.99-3.18.05-6.37-2.8-9.5-3.37-3.71-6.85-7.38-10.21-10.93l-.13-.14c-2.27-2.4-4.94-3.66-7.73-3.66h0Z"/>
          </g>
          <g>
            <path class="t" d="M68.5,220.22c-21.47-.02-37.33-14.18-40.41-36.08-1.6-11.36-.72-22.5,2.7-34.05.53-1.78.5-2.32-.15-3.42-4.69-7.84-1.75-21.37,4.01-28.24l5.49-6.54,1.1,8.47c.42,3.21-.33,5.96-.99,8.38-.45,1.67-.85,3.11-.79,4.41.01.29.02.58.03.87,0,.29.02.66.04.99.14-.02.3-.04.49-.07.48-.09.95-.13,1.38-.13,2.14,0,3.9,1.06,4.7,2.85,1.27,2.82-.47,5.92-1.57,7.16-3.43,3.89-4.1,8.93-4.8,14.25-.19,1.41-.38,2.87-.62,4.32-1.52,8.99.48,17.43,5.63,23.74,5.09,6.25,12.83,9.86,21.79,10.19,1.15.04,2.3.06,3.44.06,23.81,0,46.19-9.17,68.41-28.05,2.4-2.04,3.12-4.35,2.39-7.72l-.14-.64c-1.06-4.91-2.07-9.54-4.51-13.29-4.64-7.12-2.23-13.83-.3-19.23,1.38-3.86,3.67-4.67,5.34-4.67,2.92,0,4.72,2.57,5.49,3.67,4.47,6.39,8.97,9.63,13.37,9.63s8.92-3.09,13.68-9.19c.17-.21.33-.43.49-.65.57-.76,1.22-1.62,2.05-2.43.23-.22.58-.74.9-1.2,1.1-1.59,2.93-4.25,6.31-4.25.72,0,1.45.13,2.17.39,3.49,1.25,4.62,4.14,3.35,8.59-.1.37-.26.92-.27,1.12-.01,1.07.2,2.36,2.94,3.9.71.4,1.35.59,1.97.59.89,0,1.86-.43,2.86-1.27,2.85-2.39,4.59-5.85,6.44-9.51l.6-1.18c.09-.19.18-.39.27-.6.54-1.26,1.97-4.61,5.75-4.61.18,0,.38,0,.57.03,1.99.19,3.15,1.14,3.78,1.9,1.44,1.75,1.23,3.85,1.12,4.98-.02.18-.04.36-.04.52.09,4.86,1.48,5.73,3.03,6.26,1.78.6,3.49.91,5.09.91,2.54,0,4.77-.75,6.83-2.28.66-.49.88-.66-.81-3.8l-.12-.22c-6.74-12.55-10.71-24.14-12.14-35.44-.2-1.58-.64-3.23-1.11-4.98-1.25-4.7-2.81-10.54.5-16.79.88-1.66,2.71-5.1,6.23-5.1,3.15,0,5.05,2.83,5.96,4.19.71,1.07,1.43,2.13,2.15,3.19,1.74,2.57,3.54,5.23,5.24,7.91,2.14,3.37,3.82,6.02,2.38,8.83-.8,1.56-2.11,2.3-3.79,2.69.92,3.08,1.97,6.16,2.98,9.16,1.99,5.86,4.05,11.93,5.3,18.27,1.76,8.94.37,17.4-4.24,25.85-3.85,7.06-9.91,11.11-16.63,11.11h0c-5.55,0-10.78-2.82-14.68-7.84-.29.49-.58.97-.89,1.44-3.7,5.76-9.13,9.06-14.9,9.06-5.23,0-10.08-2.69-13.66-7.57-.17-.24-.33-.44-.46-.6-.3.28-.61.59-.84.83-6.62,6.6-13.44,9.81-20.83,9.81-.36,0-.72,0-1.09-.02-.14,1.89-.41,3.73-.67,5.52l-.21,1.44c-.9,6.39-2.41,12.99-7.36,17.95-24.28,24.37-49.68,36.21-77.64,36.21h-.1Z"/>
            <path class="am" d="M222.47,66.54c.85,0,1.73.87,2.84,2.53,2.46,3.67,4.98,7.3,7.35,11.03,3.55,5.59,3.38,5.89-3.04,6.25,2.69,10.63,7.28,20.63,9.4,31.41,1.65,8.41.11,16.05-3.85,23.33-3.32,6.1-8.31,9.15-13.34,9.15s-9.71-2.83-13.17-8.5c-.48-.79-.95-1.6-1.72-2.9-1.44,2.55-2.53,4.71-3.83,6.74-3.1,4.82-7.42,7.33-11.74,7.33-3.83,0-7.65-1.97-10.63-6.04-1.41-1.92-2.41-2.71-3.37-2.71-1.09,0-2.12,1-3.61,2.49-5.01,4.99-10.82,8.72-18.18,8.72-.4,0-.8-.01-1.2-.03-.13,0-.25-.01-.38-.01-2.17,0-3.09,1.13-3.25,3.35-.16,2.3-.54,4.58-.87,6.86-.81,5.79-2.13,11.64-6.3,15.82-20.7,20.77-44.61,35.11-74.98,35.11-.03,0-.06,0-.09,0-19.98-.02-33.9-12.97-36.7-32.85-1.56-11.07-.56-21.83,2.59-32.46.68-2.28.88-4.05-.53-6.41-3.51-5.87-1.53-17.71,3.67-23.9.59,4.55-1.99,8.34-1.81,12.47.12,2.73-.19,5.49,3.29,5.49.48,0,1.03-.05,1.67-.17.27-.05.52-.07.73-.07,2.39,0,1.14,2.84.32,3.77-5.22,5.91-5.11,13.39-6.3,20.44-3.49,20.67,10.02,37.55,30.98,38.31,1.2.04,2.39.07,3.57.07,27.29,0,50.27-11.47,70.84-28.94,3.56-3.03,4.63-6.76,3.63-11.38-1.15-5.29-2.24-10.67-5.17-15.18-3.61-5.55-1.79-10.66.09-15.91.55-1.54,1.15-2.19,1.8-2.19.73,0,1.53.81,2.41,2.07,5.24,7.49,10.79,11.23,16.44,11.23s11.11-3.55,16.64-10.63c.71-.91,1.36-1.88,2.18-2.68,1.52-1.45,2.51-4.4,4.61-4.4.28,0,.58.05.9.17,2.8,1,.62,3.99.59,6.11-.05,3.53,2.07,5.68,4.86,7.25,1.3.73,2.57,1.07,3.81,1.07,1.85,0,3.62-.76,5.27-2.14,3.79-3.18,5.79-7.59,7.97-11.87.65-1.28,1.04-3.16,2.67-3.16.07,0,.14,0,.22.01,2.25.21,1.44,2.33,1.46,3.72.08,4.31,1.04,8.21,5.58,9.75,2.11.72,4.22,1.11,6.29,1.11,3.18,0,6.25-.92,9.08-3.03,3.57-2.66,1.65-5.97.14-8.8-5.77-10.75-10.19-22.04-11.72-34.13-.81-6.39-4.69-12.6-1.01-19.54,1.12-2.11,2-3.11,2.92-3.11M222.47,59.04h0c-5.79,0-8.52,5.16-9.55,7.1-4,7.55-2.16,14.46-.82,19.51.43,1.62.84,3.15,1.01,4.49,1.49,11.76,5.6,23.77,12.55,36.74l.12.22s.02.04.03.06c-.86.34-1.76.5-2.74.5-1.18,0-2.49-.24-3.88-.71-.06-.02-.11-.04-.14-.05-.1-.24-.3-.95-.34-2.58,0-.07.01-.14.02-.22.14-1.43.47-4.78-1.95-7.73-1.52-1.85-3.77-3.01-6.32-3.25-.31-.03-.62-.04-.93-.04-4.15,0-7.24,2.32-9.2,6.89-.06.13-.11.26-.17.39-.2.39-.4.79-.6,1.18-1.74,3.45-3.23,6.43-5.49,8.32-.21.18-.37.28-.47.34-.03-.02-.07-.03-.11-.06-.47-.26-.76-.47-.93-.61.01-.04.02-.07.03-.11.34-1.2.86-3.02.66-5.13-.35-3.72-2.72-6.72-6.36-8.03-1.13-.4-2.28-.61-3.43-.61-5.35,0-8.18,4.12-9.4,5.88-.17.24-.39.56-.5.71-1.01.99-1.76,1.98-2.36,2.79-.15.2-.3.4-.45.59-3.89,4.99-7.7,7.74-10.72,7.74s-6.67-2.85-10.29-8.03c-.91-1.3-3.69-5.27-8.56-5.27h0c-1.9,0-6.55.7-8.87,7.16-2.1,5.85-4.97,13.86.68,22.54,2.07,3.18,3,7.48,3.99,12.04l.14.64c.49,2.24.06,3.03-1.15,4.06-21.51,18.27-43.09,27.15-65.98,27.15-1.09,0-2.2-.02-3.3-.06-7.87-.29-14.62-3.41-19.02-8.81-4.45-5.47-6.17-12.84-4.83-20.75.26-1.52.45-3.01.64-4.46.75-5.72,1.34-9.38,3.89-12.26,1.77-2.01,4.23-6.63,2.17-11.19-1.13-2.5-3.36-4.25-6.06-4.84.12-.48.26-1.01.41-1.55.71-2.62,1.6-5.89,1.09-9.85l-2.2-16.95-10.99,13.09c-6.56,7.81-9.97,23.02-4.44,32.45-.03.13-.08.31-.15.55-3.53,11.91-4.48,23.9-2.82,35.64,3.36,23.86,20.68,39.29,44.12,39.31h.1c29.01,0,55.27-12.21,80.29-37.31,5.74-5.76,7.47-13.38,8.41-20.08.07-.48.14-.96.21-1.43.11-.78.23-1.56.33-2.36,6.75-.53,13.02-3.43,19.06-8.81,4.02,4.17,9.04,6.44,14.45,6.44,6.16,0,11.95-2.98,16.25-8.28,4.1,3.63,9.02,5.61,14.22,5.61,8.02,0,15.47-4.88,19.93-13.07,4.98-9.13,6.53-18.67,4.63-28.37-1.29-6.58-3.39-12.77-5.43-18.75-.68-2.01-1.35-3.97-1.98-5.92,1.01-.72,1.89-1.69,2.57-3.01,2.43-4.72-.22-8.89-2.55-12.56-1.73-2.73-3.55-5.41-5.3-8-.72-1.06-1.44-2.12-2.15-3.19-1.07-1.6-3.92-5.86-9.07-5.86h0Z"/>
          </g>
          <g>
            <path class="t" d="M265.04,181.77c-6.38,0-10.75-3.9-11.99-10.71-2.14-11.73.17-22.98,6.68-32.55,4.59-6.75,4.33-10.23-1.1-14.92-2.49-2.15-4.35-4.75-6.15-7.27-.88-1.24-1.72-2.41-2.6-3.49-3.72-4.56-4.42-13.96-1.4-18.97,1.65-2.74,3.88-3.15,5.06-3.15,1.09,0,2.18.32,3.32.96,5.11,2.9,10.49,6.09,15.14,10.43l1.93,1.8-1.03,2.42c-.66,1.55-1.67,2.48-2.66,3.05,1.51,1.95,3.26,4.07,4.22,4.7,1.32-.99,4.09-5.21,5.47-7.32,4.09-6.25,8.4-13.02,12.12-21.07l3.18-6.89,3.55,6.7c3.28,6.2,1.31,11.35-.14,15.11-2.88,7.51-7.33,13.97-11.62,20.21l-.69,1.01c-1.21,1.76-1.11,2.08.13,3.56,8.41,10.03,11.02,21.12,7.76,32.94-3.07,11.13-15.83,22.04-27.31,23.35-.64.07-1.26.11-1.87.11ZM264.7,158.79c.18.09.7.29,1.84.31,2.91-.44,5.1-1.13,6.9-2.17,2.82-1.63,8.65-5,9.32-6.42-.2-1.08-2.84-4.14-5.17-6.85l-1.38-1.61c-.22-.25-.52-.54-.84-.85-.32-.3-.63-.6-.93-.92l-.07.11c-3.7,5.57-7.2,10.83-9.35,16.77-.34.93-.34,1.43-.32,1.62Z"/>
            <path class="am" d="M295.47,87.24c2.5,4.73,1.03,8.48-.35,12.08-2.84,7.41-7.43,13.89-11.88,20.37-2.12,3.08-2.04,5.26.34,8.1,7.22,8.62,10.09,18.38,7.02,29.53-2.67,9.66-14.09,19.48-24.12,20.62-.5.06-.98.08-1.44.08-4.41,0-7.37-2.55-8.29-7.63-1.95-10.69.12-20.99,6.09-29.77,5.26-7.74,5.55-13.57-1.75-19.87-3.28-2.83-5.5-6.87-8.29-10.29-2.73-3.35-3.28-11.04-1.09-14.67.56-.93,1.16-1.33,1.84-1.33.45,0,.93.17,1.47.48,5.13,2.91,10.17,5.94,14.44,9.91-1.01,2.37-3.42,1.27-4.61,2.72.16.5.2,1.13.51,1.56,4.39,5.86,6.84,8.81,9.16,8.81s4.58-3.03,8.57-9.13c4.41-6.73,8.68-13.53,12.39-21.56M266.63,162.85c.06,0,.12,0,.19,0,2.83-.4,5.84-1.13,8.5-2.67,15.05-8.71,13.53-9.13,3.74-20.57-.62-.73-1.38-1.33-2.02-2.04-.97-1.07-1.9-1.65-2.79-1.65-.92,0-1.82.62-2.71,1.97-3.82,5.75-7.68,11.48-10.04,18.01-1.59,4.41.31,6.95,5.14,6.95M295.01,70.32l-6.36,13.78c-3.21,6.97-6.92,13-10.52,18.56l-3.56-3.31c-4.95-4.61-10.55-7.94-15.85-10.94-1.7-.96-3.44-1.45-5.17-1.45-1.59,0-5.58.48-8.28,4.97-3.84,6.38-3.02,17.48,1.71,23.28.81.99,1.61,2.11,2.46,3.3,1.84,2.57,3.92,5.49,6.75,7.93,1.32,1.14,2.92,2.79,2.99,4.14.04.72-.24,2.43-2.55,5.83-7.08,10.4-9.59,22.62-7.27,35.34,1.55,8.51,7.56,13.79,15.68,13.79.75,0,1.52-.04,2.29-.13,13.04-1.49,27.01-13.43,30.5-26.08,3.55-12.88.83-24.94-8.09-35.85l.37-.54c4.42-6.42,8.99-13.06,12.01-20.92l.03-.07c1.51-3.93,4.03-10.5-.05-18.21l-7.1-13.41h0ZM270.34,154.27c1.31-2.67,2.9-5.28,4.6-7.92,1.02,1.19,2.1,2.44,2.92,3.47-1.98,1.35-4.94,3.07-6.31,3.86-.37.21-.77.41-1.22.59h0Z"/>
          </g>
          <g>
            <path class="t" d="M380.11,99.83l15.37-8.91c1.94-1.12,3.88-2.23,5.83-3.34,7.19-4.09,14.62-8.33,21.32-13.29.14-.1.27-.2.39-.3-4.21-3.01-5.32-8.1-2.88-13.37,3.39-7.32,8.43-9.19,12.06-9.48.27-.02.53-.03.79-.03,2.83,0,4.57,1.25,5.54,2.3,1.66,1.8,2.39,4.5,2.12,7.79-.05.63-.12,1.26-.19,1.89-.36,3.29-.49,5.24.82,7.23,1.99,3,.68,6.22-.18,8.35-.14.36-.29.7-.41,1.04l-.14.38c-1.16,3.26-2.25,6.34-2.2,9.47,0,.33.01.62.02.87.3-.13.65-.29,1.05-.48l2.98-1.4,1.78,2.77c2.24,3.48.59,6.67-.2,8.2-.12.24-.24.47-.35.7-1.76,3.91-4.4,5.9-7.84,5.9-.47,0-.95-.04-1.44-.12-2.75-.46-6.19-2.25-7.02-8.24-.64-4.6.17-8.93,1.27-12.91-10.45,9.4-23.13,14.31-35.44,19.07-1.71.66-3.43,1.33-5.14,2l-2.71,1.07-5.21-7.2Z"/>
            <path class="am" d="M432.99,54.87c3.48,0,4.15,3.14,3.91,6.02-.33,3.95-1.26,7.71,1.25,11.5,1.11,1.68-.29,4.07-1,6.07-1.28,3.62-2.61,7.22-2.55,11.17.06,3.6.47,5.15,2.15,5.15.96,0,2.33-.5,4.28-1.42,1.29,2.01-.08,3.69-.82,5.34-.88,1.95-2.14,3.68-4.41,3.68-.26,0-.54-.02-.83-.07-2.77-.46-3.59-2.67-3.92-5.05-.74-5.3.78-10.27,2.33-15.25.54-1.74,2.13-3.86.05-5.24-.5-.33-.93-.47-1.31-.47-1.44,0-2.17,1.99-3.08,2.93-11.75,12.22-27.31,17.26-42.39,23.22-.35-.49-.71-.98-1.06-1.47,3.93-2.28,7.85-4.55,11.78-6.83,9.3-5.4,18.83-10.43,27.5-16.86,2.69-2,4.39-3.59.47-6.28-3.12-2.13-3.3-5.56-1.78-8.82,1.77-3.82,4.57-6.97,8.94-7.31.17-.01.33-.02.49-.02M431.15,66.02c.94,0,1-1,1.01-1.83.02-1.4-.45-2.39-1.88-2.39-.15,0-.3.01-.47.03-.95.16-2,.34-1.83,1.63.2,1.51,1.46,2.19,2.73,2.5.17.04.31.06.45.06M432.99,47.36h0c-.35,0-.72.01-1.08.04-6.54.51-11.93,4.65-15.17,11.64-2.39,5.17-2.09,10.4.59,14.41-5.63,3.88-11.61,7.28-17.87,10.85-1.96,1.11-3.91,2.23-5.86,3.36-2.62,1.52-5.24,3.04-7.87,4.56l-3.91,2.26-7.2,4.17,4.89,6.73.76,1.04.31.42,3.42,4.72,5.42-2.14c1.7-.67,3.4-1.33,5.11-1.99,9.76-3.78,19.75-7.64,28.83-13.75-.04,1.49.04,3.02.26,4.6,1.25,9,7.5,10.99,10.13,11.42.69.11,1.38.17,2.05.17,2.84,0,8.09-1.05,11.26-8.11.08-.17.17-.35.26-.52.94-1.82,3.43-6.65.03-11.95l-3.56-5.54-.63.3c.28-.87.6-1.77.94-2.71l.14-.38c.1-.29.22-.58.35-.88.95-2.33,2.91-7.19-.17-11.84-.55-.84-.54-1.76-.22-4.75.07-.65.14-1.31.2-1.97.46-5.52-1.42-8.84-3.09-10.65-2.08-2.26-5.03-3.51-8.3-3.51h0Z"/>
          </g>
          <g>
            <path class="t" d="M142.2,95.74c.52-2.43,1.39-4.32,2.34-5.85-9.01,3.83-19.44,7.35-30.53,7.35-4.98,0-9.9-.72-14.67-2.14-.92,1.85-2.4,3.92-4.95,3.92h0c-3.27,0-4.42-3.16-5.1-5.05-.15-.4-.29-.81-.46-1.21-.76-1.82-1.84-3.6-2.99-5.48-.31-.52-.63-1.03-.94-1.55-1.77-2.97-1.49-6.38.76-9.11,1.49-1.81,3.16-2.19,4.3-2.19,2.05,0,3.47,1.19,4.32,1.9.13.11.25.21.37.3,6.18,4.49,12.87,6.68,20.46,6.68,5.68,0,12.05-1.24,19.47-3.78,2.62-.9,5.16-2.12,7.85-3.41,1.62-.78,3.3-1.58,5.01-2.32,1.78-.76,3.69-1.51,5.77-1.51,2.44,0,4.54,1.03,6.08,2.99,2.6,3.31,2.51,7.78-.24,11.96-2.37,3.62-5.36,7.84-10.84,12.21l-8.2,6.54,2.19-10.26Z"/>
            <path class="am" d="M153.21,76.05c1.14,0,2.22.4,3.12,1.55,1.81,2.3,1.1,5.27-.42,7.59-2.49,3.8-5.21,7.48-10.04,11.33,1.07-5.02,3.87-6.97,5.67-9.56.53-.76,1.48-1.47.94-2.52-.38-.73-.96-.96-1.59-.96-.47,0-.97.13-1.44.27-1.09.33-2.14.82-3.19,1.29-10.5,4.69-21.12,8.44-32.25,8.44-4.72,0-9.52-.68-14.44-2.24-.48-.15-.97-.28-1.42-.28-.64,0-1.21.26-1.54,1.06-.99,2.38-1.67,3.25-2.22,3.25-.85,0-1.35-2.15-2.1-3.94-1.09-2.63-2.7-5.05-4.17-7.51-1.05-1.76-.71-3.41.43-4.81.49-.6.96-.82,1.4-.82.91,0,1.73.93,2.49,1.48,7.33,5.33,14.92,7.39,22.67,7.39,6.8,0,13.72-1.6,20.68-3.98,4.51-1.55,8.72-3.94,13.12-5.83,1.38-.59,2.88-1.21,4.29-1.21M153.22,68.54h0c-2.8,0-5.22.94-7.26,1.82-1.78.77-3.49,1.59-5.15,2.38-2.59,1.24-5.03,2.42-7.44,3.24-7.02,2.41-12.99,3.58-18.25,3.58-6.75,0-12.71-1.94-18.22-5.94-.07-.05-.14-.11-.2-.17-.99-.83-3.32-2.77-6.72-2.77-2.76,0-5.32,1.27-7.21,3.56-3.25,3.95-3.66,9.09-1.08,13.42.32.53.64,1.06.96,1.59,1.07,1.75,2.08,3.41,2.72,4.96.14.34.27.7.4,1.05.75,2.06,2.73,7.52,8.63,7.52,3.06,0,5.17-1.55,6.62-3.34,4.25,1.03,8.61,1.55,13,1.55,8.62,0,16.77-1.97,24.21-4.6l-4.08,19.08,16.41-13.09c5.91-4.72,9.11-9.23,11.64-13.09,3.61-5.51,3.63-11.77.05-16.34-2.24-2.85-5.44-4.42-9.03-4.42h0Z"/>
          </g>
          <g>
            <path class="t" d="M308.92,84.15c-2.33,0-4.07-.75-5.16-2.23-1.64-2.23-.83-4.83-.56-5.68,1.34-4.32,4.92-5.57,7.28-6.4.25-.09.49-.17.74-.26l9.94-3.67c18.15-6.7,36.91-13.63,55.41-20.36.19-.07.57-.26.91-.43,1.21-.6,2.71-1.36,4.42-1.36,2.22,0,4.08,1.27,4.96,3.4.71,1.69.72,3.42.03,5.01-1.2,2.77-4.07,4.15-6.44,5.05-7.3,2.76-14.6,5.5-21.9,8.24-9.03,3.4-18.06,6.79-27.09,10.21-3.91,1.48-7.87,3.05-11.71,4.56-1.98.78-3.96,1.56-5.94,2.34-.89.35-1.79.68-2.62.99l-1.61.6h-.68Z"/>
            <path class="am" d="M381.9,47.51c.63,0,1.16.29,1.5,1.09,1.13,2.7-1.87,4.19-4.27,5.1-16.33,6.16-32.67,12.28-48.99,18.45-5.92,2.24-11.79,4.61-17.68,6.91-1.25.49-2.5.94-3.54,1.33-2.53,0-2.69-1.26-2.14-3.05.88-2.84,3.42-3.4,5.73-4.26,21.77-8.04,43.53-16.09,65.33-24.03,1.17-.43,2.8-1.56,4.05-1.56M381.9,40c-2.61,0-4.72,1.06-6.11,1.76-.19.1-.45.23-.57.28-18.44,6.71-37.15,13.62-55.24,20.3l-10.07,3.72c-.22.08-.45.16-.68.24-2.51.88-7.72,2.71-9.62,8.83-1.36,4.35-.14,7.31,1.13,9.03,1.26,1.72,3.71,3.76,8.18,3.76h1.37l1.28-.48.97-.36c.84-.31,1.75-.65,2.65-1,1.99-.78,3.98-1.56,5.96-2.35,3.82-1.51,7.77-3.07,11.64-4.54,9.01-3.41,18.03-6.8,27.06-10.19,7.31-2.75,14.62-5.5,21.93-8.26,2.82-1.07,6.78-2.96,8.56-7.07,1.08-2.51,1.08-5.33-.01-7.94-1.47-3.52-4.7-5.71-8.43-5.71h0Z"/>
          </g>
          <g>
            <path class="t" d="M268.55,88.45c-3.89,0-6.49-2.26-8.4-3.91-.9-.78-1.74-1.51-2.51-1.86-2.63-1.19-3.67-2.91-4.09-4.14-.39-1.15-.61-2.98.56-5.17.39-.74.75-1.57,1.13-2.46,1.07-2.49,2.39-5.6,5.38-7.98l2.13-1.7,2.28,1.49c.83.55,1.64,1.05,2.43,1.55,1.74,1.09,3.39,2.13,4.98,3.36,1.79-4.94,5.01-5.7,6.8-5.7,1.97,0,3.98.87,6.16,2.65.47.38,1.05.76,1.68,1.16.48.31.96.62,1.43.95,3.15,2.23,4.89,6.16,4.65,10.53-.24,4.38-2.42,8.11-5.81,9.98-1.03.57-2.1.85-3.18.85-2.46,0-4.14-1.48-5.13-2.36-.23-.2-.47-.42-.61-.51-.35-.24-.71-.5-1.06-.75-.72-.52-1.84-1.31-2.54-1.65-.19.31-.46.86-.76,1.79-.53,1.64-2.08,3.53-4.22,3.8-.43.05-.87.08-1.29.08h0Z"/>
            <path class="am" d="M279.24,65.69c1.1,0,2.37.64,3.78,1.8,1.03.85,2.22,1.49,3.32,2.27,4.45,3.14,3.99,11.51-.81,14.16-.5.28-.95.39-1.37.39-1.47,0-2.49-1.43-3.61-2.21-2.12-1.46-4.22-3.21-6.09-3.21-1.51,0-2.88,1.15-3.98,4.53-.16.5-.69,1.18-1.12,1.24-.28.04-.56.05-.82.05-4.04,0-6.06-3.94-9.36-5.44-1.65-.75-2.89-2.04-1.77-4.12,1.65-3.08,2.39-6.76,5.54-9.28,2.71,1.78,5.22,3.18,7.45,4.95,1.11.88,2.04,1.33,2.84,1.33,1.13,0,1.96-.91,2.57-2.81.81-2.53,1.97-3.64,3.42-3.64M262.53,56.59l-4.25,3.41c-3.72,2.98-5.31,6.71-6.48,9.44-.34.81-.67,1.57-.99,2.16-1.41,2.63-1.7,5.53-.81,8.15.65,1.93,2.24,4.61,6.09,6.36.3.15,1.09.83,1.6,1.28,2.08,1.81,5.56,4.83,10.86,4.83.58,0,1.17-.04,1.76-.11,2.63-.33,4.69-1.91,6.02-3.79.07.06.15.13.22.2,1.21,1.07,3.73,3.3,7.62,3.3,1.72,0,3.4-.44,4.99-1.32,4.54-2.5,7.43-7.38,7.75-13.06.32-5.67-2.01-10.83-6.23-13.81-.56-.39-1.09-.74-1.57-1.04-.53-.34-1.02-.66-1.32-.9-2.88-2.36-5.67-3.5-8.54-3.5h0c-1.72,0-5.3.48-8.07,4-.57-.37-1.14-.73-1.71-1.08-.77-.48-1.56-.98-2.37-1.51l-4.56-2.99h0ZM268.62,67.18s0,0,0,0h0ZM278.04,84.72h0s0,0,0,0h0Z"/>
          </g>
          <g>
            <path class="t" d="M216.79,193.7c-2.08,0-4.17-.98-6.37-2.99-.92-.84-2.1-1.65-3.51-2.41-3.26-1.76-6.54-5.16-3.65-11.4l.18-.39c2.38-5.16,3.96-8.58,8.07-8.58,2.6,0,4.92,1.62,8.75,4.3.33.23.61.41.84.55.03-.09.06-.18.1-.29,1.67-5.1,5.15-5.65,6.58-5.65,1.81,0,3.65.78,5.46,2.31.63.53,1.49,1.03,2.4,1.56,2.46,1.43,5.84,3.39,6.91,7.76l.21.87-.2.88c-.83,3.57-2.4,6.86-4.93,10.37-1.14,1.57-2.75,2.44-4.55,2.44-1.69,0-3.08-.77-4.09-1.44l-.85-.55c-1.37-.89-2.79-1.82-4.16-2.89-.1-.08-.2-.16-.29-.22-1.91,5.01-5.14,5.76-6.9,5.76h0Z"/>
            <path class="am" d="M227.77,170.61c.9,0,1.92.48,3.04,1.42,2.81,2.38,7.08,3.23,8.09,7.35-.82,3.53-2.4,6.37-4.32,9.02-.47.64-.98.88-1.51.88-.67,0-1.37-.39-2.03-.82-1.6-1.06-3.24-2.08-4.75-3.26-1.21-.95-2.31-1.57-3.29-1.57-1.1,0-2.03.79-2.77,2.81-.88,2.41-2.04,3.5-3.45,3.5-1.13,0-2.41-.7-3.84-2.01-1.27-1.16-2.75-2.13-4.26-2.94-2.89-1.56-3.5-3.33-2.03-6.52,2.16-4.67,3.08-6.79,4.84-6.79,1.37,0,3.25,1.28,6.61,3.62,1.46,1.02,2.67,1.66,3.69,1.66,1.24,0,2.2-.95,2.96-3.3.67-2.04,1.7-3.06,3.01-3.06M227.77,163.1v7.51s0-7.51,0-7.51c-1.37,0-5.27.36-8.11,4.18-2.84-1.87-5.27-3.09-8.16-3.09-6.52,0-9.04,5.47-11.48,10.76l-.18.39c-3.11,6.73-1.14,12.82,5.28,16.28,1.14.61,2.07,1.25,2.76,1.88,2.93,2.67,5.84,3.97,8.9,3.97,1.69,0,5.27-.47,8.11-4.04.4.27.8.53,1.19.78l.83.54c1.34.88,3.44,2.06,6.16,2.06,2.99,0,5.76-1.46,7.59-3.99,2.83-3.92,4.6-7.65,5.55-11.72l.41-1.75-.43-1.75c-1.46-5.92-5.98-8.54-8.68-10.11-.73-.42-1.48-.86-1.86-1.18-2.51-2.12-5.16-3.2-7.89-3.2h0ZM217.48,171.74s0,0,0,0h0Z"/>
          </g>
          <g>
            <path class="t" d="M252.89,63.34c-1.72,0-3.38-.61-4.95-1.81l-4.42-3.37,4.77-2.84c1.46-.87,2.9-1.72,4.32-2.56,3.29-1.94,6.39-3.77,9.49-5.68,3.42-2.11,6.79-4.32,10.52-6.8l.33-.22c.84-.55,2.15-1.42,2.75-2.01-.23-.3-.7-.81-1.59-1.51-3.79-2.97-4.1-8.4-.75-13.5,1.54-2.34,5.13-7.82,11.64-7.82.28,0,.56.01.85.03,2.82.2,4.47,1.49,5.35,2.54,2.25,2.66,1.9,6.4,1.73,8.19-.08.83-.21,1.6-.33,2.34-.49,2.94-.41,3.43.72,4.32,2.56,2.03,2.75,4.96.58,8.71-.13.22-.25.43-.36.64-1.54,2.99-3.88,3.43-5.13,3.43-1.06,0-2.13-.31-3.25-.93-.29.39-.62.81-1.02,1.23-7.17,7.39-16.25,12.92-27.78,16.9l-.13.05c-.83.29-1.96.68-3.35.68h0Z"/>
            <path class="am" d="M285,18.98c.19,0,.38,0,.58.02,3.94.29,3.89,3.75,3.62,6.63-.33,3.52-1.95,6.98,1.79,9.95,1.59,1.26-.01,3.19-.78,4.69-.51.99-1.11,1.4-1.79,1.4-.59,0-1.24-.3-1.95-.78-.66-.45-1.22-.63-1.71-.63-1.53,0-2.32,1.83-3.31,2.85-7.39,7.62-16.39,12.54-26.31,15.96-.72.25-1.45.52-2.25.52s-1.65-.26-2.67-1.04c4.8-2.86,9.36-5.5,13.86-8.27,3.59-2.21,7.11-4.53,10.62-6.86,3.97-2.63,7.9-4.97,1.72-9.82-2.65-2.08-1.71-5.77.07-8.49,2.04-3.11,4.54-6.13,8.5-6.13M283.38,30.04c.73,0,1.01-.74,1.07-1.55.09-1.42-.18-2.7-2.05-2.92-.82.25-1.94.35-2.11,1.48-.24,1.7,1.19,2.27,2.37,2.81.28.13.51.18.72.18M285,11.47c-8.54,0-13.07,6.91-14.78,9.52-3.87,5.91-3.93,12.27-.36,16.63-3.43,2.27-6.55,4.32-9.72,6.27-3.07,1.89-6.15,3.71-9.42,5.64-1.43.84-2.87,1.7-4.34,2.57l-9.54,5.68,8.83,6.74c2.24,1.71,4.67,2.58,7.23,2.58,2.02,0,3.62-.56,4.58-.89l.12-.04c11.79-4.07,21.17-9.71,28.66-17.24.71.17,1.43.25,2.16.25,3.6,0,6.68-1.99,8.47-5.47.08-.15.17-.31.27-.47.55-.95,1.38-2.38,1.78-4.18.76-3.38-.29-6.69-2.8-8.95.05-.36.12-.8.18-1.16.13-.77.27-1.64.36-2.61.2-2.12.67-7.1-2.61-10.97-1.35-1.59-3.82-3.56-7.95-3.86-.37-.03-.75-.04-1.12-.04h0Z"/>
          </g>
          <g>
            <path class="t" d="M398.78,210.47c-.79,0-1.61-.07-2.43-.21l-10.53-1.84,9.36-5.15c5.71-3.14,9.97-7.9,14.48-12.95,2.52-2.82,5.13-5.74,8.04-8.38,4.89-4.45,9.85-6.62,15.15-6.62,2.14,0,4.33.37,6.51,1.09.28.09.53.14.74.14.65,0,1.49-.79,2.49-2.34l.07-.1c1.04-1.62,2.61-4.06,5.34-4.06.95,0,1.85.32,2.58.9.32-.53.72-1.03,1.25-1.46.9-.72,2.24-1.8,4.03-1.8.46,0,.91.07,1.34.22,2.33.78,3.33,3.15,3.66,4.13,1.16,3.53.52,7.34-1.74,10.46-2.26,3.12-5.8,4.98-9.48,4.98h0c-.48,0-.97-.03-1.45-.09-.06,0-.11-.02-.17-.03-3.67,2.62-7.58,2.99-10.7,2.99-1.13,0-2.25-.05-3.33-.1-1.04-.05-2.02-.09-2.98-.09-1.17,0-2.11.07-2.95.22-3.15.56-5.83,2.82-8.26,5.17-1.29,1.25-2.56,2.54-3.83,3.82-1.81,1.83-3.69,3.73-5.63,5.53-2.89,2.69-6.41,5.56-11.55,5.56Z"/>
            <path class="am" d="M455.86,171.45c.05,0,.1,0,.15.02.57.19,1.06,1.07,1.28,1.74,1.66,5.08-2.5,10.52-7.66,10.52-.32,0-.64-.02-.96-.06-.46-.06-1.11-.4-1.45-.4-.07,0-.13.02-.18.05-2.97,2.76-6.31,3.28-9.73,3.28-2.09,0-4.22-.2-6.31-.2-1.22,0-2.43.07-3.62.28-4.04.72-7.28,3.34-10.21,6.17-3.17,3.07-6.18,6.3-9.41,9.3-2.54,2.36-5.24,4.56-8.99,4.56-.57,0-1.16-.05-1.79-.16,9.68-5.32,15.39-14.7,23.24-21.85,3.73-3.39,7.87-5.64,12.62-5.64,1.69,0,3.47.28,5.33.9.69.23,1.33.33,1.92.33,2.47,0,4.19-1.8,5.65-4.06.53-.83,1.54-2.45,2.25-2.45.16,0,.31.09.43.29,1.44,2.4,2.37,3.26,3.04,3.26,1.44,0,1.58-4.03,2.71-4.94.49-.4,1.21-.97,1.68-.97M455.86,163.95c-3,0-5.15,1.64-6.25,2.52-.52-.11-1.06-.16-1.61-.16h0c-4.77,0-7.29,3.9-8.49,5.78l-.07.1c-.06.1-.13.19-.18.27-2.14-.59-4.29-.89-6.4-.89-6.2,0-12.15,2.55-17.68,7.59-3.05,2.78-5.72,5.77-8.31,8.66-4.29,4.8-8.35,9.33-13.49,12.16l-18.73,10.3,21.06,3.67c1.03.18,2.06.27,3.08.27,7.04,0,11.63-4.27,14.1-6.56,2-1.86,3.9-3.78,5.74-5.64,1.3-1.31,2.52-2.55,3.78-3.77,1.91-1.85,4.15-3.79,6.31-4.17.61-.11,1.36-.16,2.29-.16.87,0,1.81.04,2.8.09,1.12.05,2.28.11,3.51.11,3.13,0,7.45-.35,11.66-2.89.22,0,.44.01.66.01,4.88,0,9.56-2.44,12.52-6.53,2.93-4.05,3.78-9.22,2.27-13.83-.5-1.52-2.09-5.21-6.04-6.53-.81-.27-1.66-.41-2.52-.41h0Z"/>
          </g>
          <g>
            <path class="t" d="M135.57,217.38c-.46,0-.93-.02-1.41-.06l-11.19-.99,9.54-5.93c6.77-4.21,11.87-9.97,17.28-16.08l1.21-1.36c4.41-4.96,10.59-10.66,19.27-10.66,2.22,0,4.52.38,6.84,1.12.21.07.4.1.55.1.8,0,2.08-1.89,2.63-2.7.08-.12.16-.27.24-.42.57-1.03,1.89-3.45,4.71-3.45,1.12,0,2.04.39,2.78.93,1.15-2.26,3.15-3.13,4.92-3.13.35,0,.71.03,1.07.1,2.09.38,4.58,1.82,4.55,6.55,0,.14,0,.27,0,.4.08,4.06-.95,7.22-3.07,9.37-2.01,2.05-4.86,3.08-8.47,3.08h0c-.47,0-.96-.02-1.46-.05-3.64,2.72-7.53,3.1-10.62,3.1-1.18,0-2.33-.06-3.45-.12-1.07-.06-2.08-.11-3.06-.11-1.17,0-2.11.08-2.94.24-3.07.6-5.71,2.68-8.73,5.61-1.39,1.35-2.76,2.72-4.12,4.1-1.58,1.59-3.22,3.24-4.89,4.84-3.86,3.71-7.85,5.51-12.18,5.51ZM190.49,180.97h0Z"/>
            <path class="am" d="M192.95,178.51c.13,0,.26.01.4.04,1.69.31,1.44,2.03,1.47,3.33.11,5.83-2.41,8.63-7.78,8.63-.48,0-.98-.02-1.51-.07-.3-.03-.71-.21-.95-.21-.06,0-.11.01-.15.05-2.88,2.75-6.13,3.28-9.47,3.28-2.16,0-4.35-.23-6.51-.23-1.24,0-2.46.07-3.66.31-4.24.83-7.57,3.63-10.63,6.6-3.03,2.94-5.95,6-9,8.92-2.69,2.59-5.74,4.47-9.58,4.47-.35,0-.71-.02-1.08-.05,7.76-4.83,13.44-11.53,19.31-18.13,4.58-5.15,9.7-9.4,16.46-9.4,1.78,0,3.67.29,5.7.94.61.19,1.17.28,1.69.28,2.56,0,4.22-2.11,5.74-4.36.54-.8,1.03-2.21,1.84-2.21.48,0,1.07.5,1.85,1.91.58,1.05,1.22,1.52,1.81,1.52.93,0,1.73-1.15,2.01-2.99.17-1.18.66-2.63,2.04-2.63M192.95,171c-2.1,0-4.31.75-6.09,2.35-.52-.1-1.06-.15-1.61-.15-3.35,0-6.04,1.82-8,5.4-.04.07-.08.14-.11.21-.16.23-.29.43-.41.59-2.17-.56-4.33-.85-6.44-.85-10.17,0-17.14,6.37-22.07,11.92l-1.21,1.37c-5.22,5.89-10.15,11.46-16.45,15.38l-19.08,11.87,22.38,1.99c.58.05,1.17.08,1.74.08,5.35,0,10.18-2.15,14.78-6.56,1.69-1.63,3.35-3.29,4.95-4.9,1.34-1.34,2.72-2.73,4.08-4.06,2.54-2.47,4.67-4.19,6.84-4.62.58-.11,1.31-.17,2.22-.17s1.85.05,2.86.1c1.17.06,2.37.12,3.64.12,3.14,0,7.49-.36,11.71-3.05.12,0,.25,0,.37,0,4.66,0,8.41-1.42,11.15-4.21,2.85-2.9,4.24-6.96,4.14-12.07,0-.1,0-.2,0-.31.06-8.23-5.83-9.94-7.63-10.27-.58-.1-1.16-.16-1.74-.16h0Z"/>
          </g>
          <g>
            <path class="t" d="M99.75,151.5c-1.97,0-4.52-.89-5.45-5.13-.04-.18-.07-.35-.12-.51-.47-1.19-.92-2.42-1.36-3.65-.48-1.33-.93-2.58-1.43-3.82l-.08-.2c-.86-2.14-.92-2.14-1.59-2.14h-.56c-4.14.01-7.69-3.23-8.27-7.52-.49-3.64,1.4-7.37,4.8-9.5,1.21-.76,2.5-1.14,3.83-1.14,3.18,0,5.45,2.17,6.81,3.47,1.34,1.28,2.39,2.69,3.28,4.18.64-2.17,1.49-4.34,2.99-6.36,1.16-1.56,3.31-4.46,7.11-4.46.69,0,1.4.1,2.1.3,4.09,1.17,6.82,4.66,6.8,8.66,0,.17,0,.37,0,.57.03,1.72.08,4.32-1.71,6.15-.96.98-2.26,1.51-3.68,1.51-1.11,0-2.27-.31-3.57-.97-.83,2.94-1.55,5.99-2.26,8.94-.41,1.74-.83,3.48-1.27,5.21l-.07.28c-.41,1.67-1.37,5.57-5.54,6.08-.28.03-.54.05-.78.05Z"/>
            <path class="am" d="M109.7,118.47c.33,0,.69.05,1.07.16,2.41.69,4.1,2.7,4.08,5.03,0,1.62.33,4.5-1.63,4.5-.62,0-1.47-.29-2.64-1-.7-.43-1.29-.61-1.8-.61-1.52,0-2.25,1.65-2.68,3.17-1.35,4.77-2.39,9.63-3.61,14.45-.37,1.47-.71,3.35-2.42,3.56-.12.01-.22.02-.33.02-1.76,0-1.59-2.03-2.08-3.25-.99-2.49-1.81-5.04-2.81-7.52-.97-2.39-1.8-4.69-5.16-4.69-.12,0-.24,0-.36,0-.06,0-.13,0-.19,0-2.29,0-4.23-1.91-4.55-4.28-.32-2.38,1.12-4.6,3.08-5.83.64-.4,1.25-.57,1.83-.57,1.6,0,2.99,1.26,4.22,2.43,3.2,3.06,4.54,7.3,6.54,12.04,2.51-5.33,2.32-10.62,5.34-14.69,1.09-1.47,2.28-2.94,4.09-2.94M109.7,110.96h0c-5.69,0-8.8,4.18-10.12,5.97-.35.47-.67.94-.96,1.42-1.63-1.54-4.71-4.23-9.11-4.23-2.02,0-4.03.59-5.82,1.72-4.65,2.91-7.21,8.09-6.53,13.18.76,5.71,5.26,10.12,10.72,10.72l.02.05c.47,1.17.91,2.39,1.38,3.68.42,1.15.84,2.34,1.32,3.54.01.05.02.1.03.16,1.66,7.49,7.4,8.08,9.12,8.08.41,0,.82-.03,1.24-.08,4.47-.55,7.4-3.55,8.72-8.91l.06-.26c.44-1.76.87-3.54,1.28-5.25.42-1.76.82-3.46,1.25-5.13.31.03.62.04.93.04,2.43,0,4.69-.94,6.36-2.64,2.9-2.95,2.82-6.79,2.78-8.85,0-.17,0-.33,0-.48.03-5.71-3.8-10.65-9.52-12.29-1.04-.3-2.1-.45-3.14-.45h0Z"/>
          </g>
          <g>
            <path class="t" d="M232.76,51.82c-1.96-2.35-2.54-4.9-3-6.94-.23-1.03-.43-1.92-.76-2.61-.37-.77-.67-1.53-.96-2.27-1.27-3.18-1.65-3.74-3.67-3.75-1.9,0-3.8-.88-5.23-2.39-1.54-1.62-2.36-3.82-2.25-6.01.17-3.42,1.98-6.53,4.86-8.3,1.21-.74,2.5-1.12,3.85-1.12,2.18,0,4.27.96,6.38,2.93,1.52,1.41,2.73,2.96,3.74,4.65,1-3.03,2.26-6.16,5.03-8.67,1.56-1.41,3.36-2.16,5.21-2.16s3.53.71,5,2.05c4.33,3.94,4.12,7.96,3.18,10.64-1.33,3.79-3.88,4.36-5.29,4.36-1.25,0-2.31-.45-3.14-.87-.9,3.18-1.69,6.48-2.46,9.67l-.8,3.31c-.57,2.4-1.35,5.69-4.53,8.09l-2.85,2.15-2.29-2.74Z"/>
            <path class="am" d="M245.95,18.92c.84,0,1.68.35,2.47,1.07,1.93,1.75,3.15,3.81,2.16,6.62-.49,1.39-1.08,1.85-1.74,1.85-.79,0-1.69-.64-2.67-1.09-.52-.24-.98-.35-1.38-.35-1.55,0-2.23,1.6-2.65,3.07-1.2,4.22-2.19,8.51-3.23,12.78-.58,2.37-.99,4.81-3.28,6.54-2.27-2.72-1.95-6.04-3.25-8.76-1.74-3.65-2.25-8.13-8.01-8.16-1.86,0-3.87-2.02-3.76-4.46.11-2.15,1.26-4.17,3.08-5.29.64-.39,1.27-.56,1.88-.56,1.4,0,2.71.88,3.83,1.92,3.48,3.24,5.09,7.54,6.46,12.62,2.45-2.94,2.35-6.28,3.29-9.17.91-2.78,1.9-5.43,4.1-7.43.86-.78,1.77-1.19,2.69-1.19M245.95,11.41s0,0,0,0c-2.8,0-5.47,1.08-7.73,3.14-1.46,1.33-2.58,2.77-3.46,4.26-.07-.07-.15-.14-.23-.21-2.8-2.61-5.81-3.93-8.94-3.93-2.03,0-4.04.58-5.82,1.68-3.92,2.42-6.4,6.65-6.63,11.31-.16,3.21,1.04,6.41,3.28,8.78,2.04,2.15,4.78,3.43,7.57,3.55.19.43.41.98.58,1.4.3.75.64,1.61,1.06,2.49.15.31.34,1.15.49,1.82.49,2.18,1.23,5.48,3.78,8.52l4.58,5.48,5.7-4.3c4.26-3.21,5.31-7.6,5.93-10.22l.13-.54c.22-.92.44-1.84.67-2.76.49-2.04.96-4.01,1.46-5.95.16,0,.33.01.5.01,1.51,0,6.59-.5,8.83-6.87,1.08-3.07,1.97-9.06-4.19-14.66-2.17-1.98-4.78-3.02-7.53-3.02h0Z"/>
          </g>
          <g>
            <path class="t" d="M49.61,97.39c-.45-1.28-.88-2.53-1.31-3.77-1-2.89-1.94-5.62-2.99-8.33l-.06-.14c-.26-.68-.75-1.93-1.03-2.13-.03-.02-.18-.06-.5-.06-.07,0-.14,0-.21,0-.15,0-.31.01-.46.01-4.18,0-7.75-3.19-8.31-7.42-.56-4.19,1.68-8.22,5.55-10.03,1.01-.47,2.06-.71,3.13-.71,3.52,0,5.99,2.59,7.18,3.83,1.13,1.18,2.04,2.46,2.84,3.81.66-2.19,1.53-4.38,3.04-6.41,1.06-1.44,3.26-4.42,7.04-4.42.76,0,1.54.13,2.31.37,3.91,1.26,6.47,4.68,6.51,8.74v.17c.02,1.76.06,4.42-1.77,6.27-.96.98-2.28,1.51-3.69,1.51-1.07,0-2.19-.3-3.42-.91-.6,2.12-1.13,4.33-1.65,6.46-.42,1.75-.86,3.57-1.34,5.36-.11.39-.19.8-.29,1.2-.54,2.42-1.28,5.72-4.79,8.35l-4.09,3.06-1.7-4.82Z"/>
            <path class="am" d="M63.52,65.36c.36,0,.75.06,1.16.19,2.4.77,3.88,2.84,3.91,5.21.02,1.66.12,4.16-1.71,4.16-.57,0-1.32-.24-2.32-.82-.76-.44-1.4-.63-1.94-.63-1.44,0-2.21,1.34-2.67,2.93-1.17,4.04-2.01,8.16-3.1,12.22-.68,2.52-.79,5.34-3.7,7.52-1.49-4.23-2.81-8.26-4.34-12.2-.92-2.37-1.76-4.73-5.09-4.73-.14,0-.28,0-.42.01-.08,0-.17,0-.25,0-2.32,0-4.28-1.84-4.59-4.16-.34-2.56,1.07-5.04,3.42-6.14.53-.25,1.05-.36,1.54-.36,1.73,0,3.21,1.35,4.46,2.67,2.96,3.1,4.25,7.13,6.13,12.04,2.51-5.58,2.42-10.87,5.48-15.01,1.06-1.44,2.25-2.9,4.02-2.9M63.52,57.86h0c-5.68,0-8.86,4.32-10.06,5.95-.34.47-.66.94-.95,1.41-1.71-1.68-4.76-4.16-9.08-4.16-1.62,0-3.21.36-4.72,1.07-5.37,2.51-8.46,8.11-7.69,13.92.75,5.67,5.29,10.04,10.8,10.62,1.01,2.63,1.94,5.32,2.93,8.17.43,1.25.87,2.52,1.32,3.8l3.4,9.64,8.18-6.12c4.62-3.45,5.61-7.89,6.2-10.53.08-.36.16-.71.25-1.05.49-1.84.94-3.68,1.36-5.46.22-.92.44-1.82.66-2.71.25.02.5.03.76.03,2.43,0,4.69-.93,6.37-2.63,2.93-2.97,2.88-6.86,2.85-8.96v-.16c-.07-5.61-3.73-10.54-9.12-12.27-1.14-.37-2.31-.55-3.46-.55h0Z"/>
          </g>
          <g>
            <path class="t" d="M156.77,57.53c-.22,0-.44-.01-.68-.04-1.93-.21-4.3-1.33-4.67-5.47-.01-.12-.02-.24-.03-.36-.56-1.41-1.08-2.83-1.6-4.26-.51-1.4-1.03-2.81-1.58-4.2-.17-.43-.51-1.28-.74-1.58-.04,0-.11-.01-.2-.01-.06,0-.12,0-.18,0-.2.01-.4.02-.6.02h0c-4.65,0-8.2-3.21-8.26-7.46-.06-4.64,1.72-8.15,5-9.87,1.1-.58,2.26-.87,3.43-.87,3.23,0,5.48,2.18,6.97,3.62,1.21,1.17,2.19,2.46,3.01,3.84.69-2.26,1.64-4.48,3.23-6.52.85-1.09,3.12-4,6.84-4,.96,0,1.93.2,2.89.59,3.83,1.55,6.14,4.73,6.05,8.29,0,.23,0,.5.01.78.05,1.65.12,4.13-1.59,5.9-.93.96-2.22,1.49-3.61,1.49-1.16,0-2.39-.35-3.8-1.1-.03.1-.06.2-.1.31-.85,2.88-1.57,5.9-2.28,8.82-.48,2-.98,4.06-1.52,6.1l-.08.29c-.36,1.41-1.45,5.7-5.94,5.7Z"/>
            <path class="am" d="M166.73,24.11c.46,0,.95.1,1.48.31,2.07.84,3.76,2.5,3.7,4.71-.04,1.64.46,4.52-1.44,4.52-.61,0-1.48-.3-2.69-1.04-.76-.46-1.39-.65-1.93-.65-1.72,0-2.41,1.99-2.88,3.59-1.46,4.95-2.5,10.03-3.82,15.02-.35,1.34-.68,3.19-2.38,3.19-.09,0-.18,0-.28-.02-1.7-.18-1.1-2.18-1.56-3.34-1.13-2.85-2.11-5.76-3.24-8.6-.82-2.06-1.63-3.96-4.42-3.96-.13,0-.27,0-.41.01-.12,0-.25.01-.37.01-2.24,0-4.47-1.24-4.5-3.76-.03-2.38.55-5.22,3-6.5.59-.31,1.15-.44,1.68-.44,1.7,0,3.11,1.35,4.36,2.56,3.27,3.16,4.48,7.48,6.32,12.79,2.28-6.14,2.18-11.62,5.49-15.86,1.05-1.35,2.25-2.56,3.88-2.56M166.73,16.61h0c-5.55,0-8.75,4.1-9.8,5.44-.45.58-.86,1.17-1.23,1.76-1.78-1.68-4.76-4.14-9.03-4.14-1.79,0-3.53.44-5.17,1.3-4.53,2.38-7.08,7.21-7.01,13.24.07,5.89,4.49,10.44,10.51,11.09.42,1.1.83,2.21,1.26,3.39.46,1.25.93,2.54,1.44,3.85.74,7.34,6.29,8.5,7.99,8.69.36.04.72.06,1.08.06,2.76,0,7.68-1.11,9.57-8.52l.07-.26c.55-2.08,1.05-4.16,1.53-6.18.43-1.8.85-3.53,1.29-5.24.41.05.82.08,1.24.08,2.42,0,4.66-.93,6.31-2.63,2.82-2.91,2.71-6.63,2.65-8.63,0-.2-.02-.39-.01-.56.14-5.16-3.07-9.71-8.39-11.87-1.41-.57-2.86-.86-4.3-.86h0Z"/>
          </g>
          <g>
            <path class="t" d="M359.87,108.8c-1.41,0-4.75-.52-5.21-5.38-.01-.12-.02-.24-.04-.36-.99-2.88-1.97-5.69-3.01-8.44-.83-2.19-.92-2.19-1.6-2.19-.08,0-.16,0-.24,0-.15,0-.29.01-.44.01-4.16,0-7.79-3.33-8.27-7.59-.41-3.58,1.47-7.27,4.79-9.41,1.23-.79,2.55-1.2,3.91-1.2,3.19,0,5.53,2.25,6.78,3.46,1.33,1.29,2.41,2.71,3.31,4.22.64-2.13,1.48-4.26,2.9-6.24,1.05-1.46,3.23-4.49,7.11-4.49.71,0,1.44.11,2.16.32,3.99,1.16,6.52,4.49,6.6,8.67.04,1.97.09,4.57-1.7,6.4-.95.97-2.25,1.5-3.66,1.5h0c-1.07,0-2.18-.29-3.42-.9-.03.09-.05.17-.07.25-.99,3.38-1.83,6.82-2.64,10.16-.44,1.79-.87,3.58-1.33,5.37-.97,3.8-2.93,5.76-5.82,5.82h-.13Z"/>
            <path class="am" d="M369.88,74.98c.35,0,.72.05,1.11.17,2.46.72,3.85,2.67,3.9,5.14.04,1.84.1,4.07-1.61,4.07-.58,0-1.35-.25-2.4-.86-.78-.45-1.42-.64-1.95-.64-1.74,0-2.31,2.04-2.77,3.62-1.5,5.14-2.65,10.38-3.98,15.57-.33,1.3-.81,2.97-2.26,2.99-.02,0-.03,0-.05,0-1.8,0-1.26-1.95-1.66-3.1-1-2.89-2-5.79-3.08-8.65-.92-2.44-1.82-4.61-5.11-4.61-.15,0-.3,0-.45.01-.08,0-.15,0-.23,0-2.24,0-4.27-1.85-4.54-4.25-.27-2.35,1.15-4.58,3.09-5.83.65-.42,1.28-.6,1.87-.6,1.59,0,2.98,1.26,4.18,2.41,3.26,3.15,4.7,7.36,6.38,12.54,2.64-5.63,2.51-10.93,5.49-15.07,1.06-1.47,2.25-2.93,4.07-2.93M369.88,67.47c-5.81,0-8.97,4.39-10.16,6.05-.3.41-.57.83-.83,1.25-1.61-1.54-4.67-4.26-9.12-4.26-2.07,0-4.12.62-5.94,1.8-4.5,2.91-7.05,8-6.48,12.99.66,5.83,5.22,10.31,10.84,10.86.94,2.5,1.84,5.08,2.75,7.72.86,8.44,8.11,8.68,8.94,8.68h.2c2.69-.06,7.49-1.25,9.38-8.64.47-1.82.91-3.65,1.34-5.42.56-2.29,1.09-4.49,1.67-6.66.27.02.54.03.81.03,2.43,0,4.68-.93,6.34-2.63,2.9-2.95,2.82-6.75,2.77-9.02v-.07c-.11-5.8-3.77-10.59-9.3-12.2-1.07-.31-2.15-.47-3.21-.47h0Z"/>
          </g>
          <g>
            <path class="t" d="M187.91,76.8c-.04-.96-.05-1.93-.06-2.89-.03-3.03-.06-5.89-1.16-8.32-1.6-3.54-4-6.71-7.33-9.68-3.56-3.18-3.74-7.36-.47-11.18,1.68-1.96,3.46-2.38,4.65-2.38,2.46,0,4.06,1.63,5.01,2.6.15.15.29.29.42.42,8.06,7.31,11.21,16.87,9.36,28.43l-.02.13c-.23,1.45-.92,5.84-6.24,6.44l-4,.45-.17-4.02Z"/>
            <path class="am" d="M183.54,46.12c1.14,0,2.06,1.27,2.92,2.04,7.47,6.77,9.73,15.34,8.17,25.06-.22,1.38-.42,3.14-2.97,3.43-.18-4.26.27-8.58-1.55-12.6-1.94-4.29-4.81-7.85-8.25-10.93-2.35-2.1-1.77-4-.12-5.94.66-.77,1.26-1.06,1.8-1.06M183.54,38.61c-1.98,0-4.9.64-7.5,3.69-4.62,5.41-4.3,11.85.82,16.42,2.93,2.62,5.03,5.37,6.41,8.43.77,1.71.8,4.07.83,6.81,0,.97.02,1.97.06,3.01l.34,8.04,8-.89c3.05-.34,8.34-2.04,9.53-9.58l.02-.12c2.03-12.71-1.61-23.71-10.54-31.81-.08-.08-.17-.17-.27-.27-1.09-1.11-3.66-3.72-7.69-3.72h0Z"/>
          </g>
          <g>
            <path class="t" d="M104.48,56.27c4.66-3.57,9.56-6.79,14.3-9.9,5.26-3.45,10.7-7.02,15.62-10.98,1.04-.84,2.54-1.36,3.91-1.36.9,0,1.72.22,2.43.66,1.21.74,2.04,1.88,2.33,3.22.32,1.48-.04,3.11-1.03,4.58l-.06.09c-.68,1.01-1.44,2.15-2.46,3.18-8.76,8.88-19.53,14.65-32.01,17.17l-15.87,3.2,12.85-9.86Z"/>
            <path class="am" d="M138.31,37.79c.19,0,.35.03.47.1.97.59.71,1.66.15,2.5-.64.95-1.28,1.92-2.08,2.73-8.35,8.47-18.42,13.78-30.08,16.13,9.73-7.47,20.48-13.28,29.99-20.93.37-.29,1.05-.53,1.56-.53M138.31,30.28c-2.22,0-4.56.82-6.26,2.19-4.78,3.85-9.9,7.21-15.33,10.76-4.8,3.15-9.76,6.4-14.53,10.06l-25.69,19.72,31.75-6.41c13.23-2.67,24.64-8.8,33.94-18.21,1.27-1.28,2.17-2.63,2.9-3.72l.06-.09c1.56-2.32,2.13-4.97,1.58-7.47-.51-2.35-1.95-4.35-4.04-5.63-1.29-.79-2.81-1.21-4.39-1.21h0Z"/>
          </g>
          <g>
            <path class="t" d="M67.57,177.5c-1.47,0-2.97-.27-4.46-.81l-7.23-2.6,6.49-4.11c1.7-1.07,3.34-2.11,4.95-3.12,3.56-2.24,6.93-4.36,10.26-6.52,1.2-.78,2.41-1.53,3.63-2.29,3.95-2.46,7.68-4.77,10.8-7.82,1.65-1.6,3.67-2.42,6.02-2.42.39,0,.79.02,1.2.07l1.82.19,2.03,3.26-.82,1.85c-5.23,11.56-15.41,16.45-25.25,21.18l-.9.43c-.3.15-.61.3-.92.46-1.98,1-4.44,2.24-7.64,2.24h0Z"/>
            <path class="am" d="M98.05,151.57c.26,0,.53.02.8.04v.02c-4.81,10.65-14.7,15.13-24.35,19.78-2.06.99-4.19,2.33-6.93,2.33-.98,0-2.03-.17-3.19-.59,5.44-3.44,10.38-6.51,15.26-9.67,5.14-3.33,10.58-6.25,15.01-10.57,1.02-.99,2.14-1.35,3.4-1.35M98.05,144.06c-3.31,0-6.3,1.2-8.64,3.48-2.83,2.76-6.4,4.97-10.17,7.32-1.21.75-2.45,1.52-3.69,2.33-3.31,2.15-6.67,4.26-10.22,6.49-1.61,1.02-3.27,2.05-4.96,3.13l-12.99,8.22,14.46,5.19c1.9.68,3.83,1.03,5.73,1.03,4.1,0,7.25-1.59,9.33-2.64.29-.15.57-.29.86-.43l.9-.43c9.96-4.79,21.25-10.21,27.05-23.02l1.66-3.67-2.14-3.41-1.94-3.09-3.64-.4c-.54-.06-1.08-.09-1.59-.09h0Z"/>
          </g>
          <g>
            <path class="t" d="M319.86,59.68c-1.18,0-2.35-.3-3.48-.88-2.49-1.29-4.11-3.52-4.56-6.3-1.34-8.09.02-15.94,4.16-24.01l1.39-2.71,7.85,2.15-.7,3.44c-.24,1.19-.52,2.39-.8,3.58-.62,2.63-1.2,5.12-1.38,7.56l-.06.68c-.03.37-.08.93-.09,1.41.07-.01.15-.03.23-.04.51-.11.98-.16,1.45-.16,2.85,0,4.91,2.03,5.03,4.94.11,2.83-1.01,5.4-3.45,7.83-2.07,2.06-4.17,2.5-5.58,2.5h0Z"/>
            <path class="am" d="M319.32,30.21c.51.14,1.01.28,1.52.42-.79,3.87-1.95,7.71-2.25,11.61-.19,2.54-.84,6.2,2.89,6.2.49,0,1.05-.06,1.69-.2.24-.05.47-.08.68-.08.76,0,1.24.37,1.28,1.34.08,2.05-.98,3.66-2.35,5.02-.86.86-1.84,1.4-2.93,1.4-.56,0-1.14-.14-1.75-.46-1.45-.75-2.32-1.98-2.59-3.57-1.28-7.75.32-14.91,3.8-21.68M315.42,21.36l-2.78,5.42c-4.46,8.68-5.98,17.54-4.53,26.33.66,3.97,2.98,7.17,6.54,9.02,1.66.86,3.41,1.3,5.2,1.3,2.11,0,5.26-.62,8.23-3.6,3.17-3.16,4.7-6.74,4.54-10.63-.16-4.09-2.71-7.25-6.34-8.23.25-1.63.66-3.36,1.08-5.16.28-1.19.57-2.42.82-3.68l1.41-6.89-6.78-1.85-1.52-.42-5.88-1.61h0Z"/>
          </g>
          <g>
            <path class="t" d="M176.31,102.66c.42-.76.81-1.42,1.17-2.04.23-.4.45-.77.65-1.12-1.96-.02-3.11-1.02-3.63-1.62-1.53-1.79-1.17-4.06-1.05-4.81.66-4.16,3.54-7.2,7.7-8.13.71-.16,1.41-.24,2.08-.24,3.25,0,5.89,1.83,7.26,5.01,1.17,2.72.95,6.25-.59,9.67-1.88,4.16-5.29,7.4-9.13,8.67l-9.13,3.01,4.67-8.4Z"/>
            <path class="am" d="M183.23,88.46c1.69,0,3.01.88,3.81,2.74,1.77,4.13-1.94,11.48-7.45,13.29,1.23-2.21,2.18-3.64,2.85-5.19.81-1.88.42-3.34-1.89-3.8-.09-.02-.2-.03-.3-.03-.63,0-1.44.28-2.08.28-.76,0-1.28-.39-1.01-2.09.42-2.67,2.15-4.46,4.81-5.05.44-.1.86-.15,1.26-.15M183.23,80.95c-.95,0-1.92.11-2.9.33-5.64,1.26-9.7,5.55-10.59,11.21-.62,3.91.69,6.42,1.9,7.84.33.39.69.74,1.08,1.06l-9.05,16.25,18.26-6.01c4.82-1.59,9.07-5.58,11.38-10.69,2-4.44,2.23-8.95.62-12.69-1.96-4.56-5.96-7.29-10.71-7.29h0Z"/>
          </g>
          <g>
            <path class="t" d="M96.78,155.39l-2.52-4.03,1.84-2.32,6.05,4.43c-.35.52-1.3,1.92-3.29,1.92h-2.08Z"/>
            <path class="am" d="M99.05,151.37s-.18.27-.18.27-.01-.02-.01-.02l.2-.25M93.16,146.71l-.2.25-3.29,4.16,2.82,4.49,2.21,3.52,4.17.02c1.82,0,4.41-.62,6.4-3.57l-12.11-8.86h0Z"/>
          </g>
          <g>
            <path class="t" d="M142.74,99.59c-1.09-1.19-1.2-2.4-1.1-3.22.09-.79.48-1.95,1.81-2.85l2.89-2.34,2.62,3.42,2.25,2.92-3.21,2.58-2.98,2.42-2.27-2.93Z"/>
            <path class="am" d="M145.7,96.52c.09.12.19.25.28.37-.12.1-.24.19-.36.29-.09-.12-.27-.26-.26-.37.01-.11.22-.2.34-.3M146.97,85.85l-5.77,4.66c-2.52,1.78-3.15,4.16-3.3,5.45-.15,1.26-.09,3.73,1.95,6.03l4.53,5.87,5.97-4.85.34-.27,5.73-4.61-4.5-5.82-.27-.35-4.69-6.1h0Z"/>
          </g>
        </g>
      </g>
    </g>
  </g>
</svg>